<svg xmlns="http://www.w3.org/2000/svg" viewBox="0 0 500 500"><g id="freepik--Floor--inject-40"><ellipse id="freepik--floor--inject-40" cx="249.95" cy="352.23" rx="231.87" ry="133.87" style="fill:#f5f5f5"></ellipse></g><g id="freepik--Shadows--inject-40"><path id="freepik--Shadow--inject-40" d="M64,391.6l7,4a8.83,8.83,0,0,0,8,0L224.3,311.7c2.2-1.27,2.2-3.33,0-4.6l-7-4a8.83,8.83,0,0,0-8,0L64,387C61.77,388.26,61.77,390.32,64,391.6Z" style="fill:#e0e0e0"></path></g><g id="freepik--Plant--inject-40"><g id="freepik--Plants--inject-40"><path d="M74.27,376.5c1.36-16.09,3.66-31.12-2.9-54.6-5.5-19.7-23.3-40.17-35.26-40.19-6.58,0-9.93,2.21-11.57,5.26-4.52,8.38,2.27,17.17,6.13,21,2.89,2.85,29.1,27.59,29.37,54.34l3.77,18.08a1.43,1.43,0,0,0,2.13.95Z" style="fill:#BA68C8"></path><path d="M74.27,376.5c1.36-16.09,3.66-31.12-2.9-54.6-5.5-19.7-23.3-40.17-35.26-40.19-6.58,0-9.93,2.21-11.57,5.26-4.52,8.38,2.27,17.17,6.13,21,2.89,2.85,29.1,27.59,29.37,54.34l3.77,18.08a1.43,1.43,0,0,0,2.13.95Z" style="opacity:0.2"></path><path d="M70.08,370.29a.7.7,0,0,1-.5-.7c1-39.3-13.94-63.86-35.45-77.74a.72.72,0,0,1-.21-1,.71.71,0,0,1,1-.21C56.69,304.71,72,329.81,71,369.62a.71.71,0,0,1-.73.7A.58.58,0,0,1,70.08,370.29Z" style="fill:#fff"></path><path d="M64.41,382.2a4.78,4.78,0,0,1-7-2.77,59.12,59.12,0,0,0-12.37-21.61c-9.8-10.78-23.71-17.93-25.66-25-2.33-8.49,5.3-12.4,17.23-8.95C51,328,66.22,346.76,66.53,381Z" style="fill:#BA68C8"></path><path d="M62.32,378.55a.73.73,0,0,1-.49-.6c-3.47-30.13-22.4-44.83-31.93-48.4a.71.71,0,0,1-.42-.92.71.71,0,0,1,.92-.42c10.53,4,29.31,18.83,32.85,49.58a.72.72,0,0,1-.63.79A.77.77,0,0,1,62.32,378.55Z" style="fill:#fff"></path></g></g><g id="freepik--Device--inject-40"><g id="freepik--device--inject-40"><g id="freepik--Mobile--inject-40"><path d="M190.33,33l-120.7,69.7a13,13,0,0,0-6.51,10.79V375.79c0,4.42,2.73,9.58,6.1,11.53s9.2,1.73,13-.49L202.52,317.4a15.39,15.39,0,0,0,6.93-12V44.07c0-4.42-2.73-9.58-6.09-11.52S194.16,30.82,190.33,33Z" style="fill:#BA68C8"></path><path d="M190.33,33l-120.7,69.7a13,13,0,0,0-6.51,10.79V375.79c0,4.42,2.73,9.58,6.1,11.53s9.2,1.73,13-.49L202.52,317.4a15.39,15.39,0,0,0,6.93-12V44.07c0-4.42-2.73-9.58-6.09-11.52S194.16,30.82,190.33,33Z" style="opacity:0.15"></path><path d="M80.59,387.63c-3.7,1.44-8.45,1.37-11.37-.31-3.36-1.95-6.09-7.11-6.09-11.53V113.52a12.41,12.41,0,0,1,1.75-5.94l11.19,6.34A13.5,13.5,0,0,0,72.84,122V381.41C72.84,386.74,76.2,389.26,80.59,387.63Z" style="fill:#BA68C8"></path><path d="M80.59,387.63c-3.7,1.44-8.45,1.37-11.37-.31-3.36-1.95-6.09-7.11-6.09-11.53V113.52a12.41,12.41,0,0,1,1.75-5.94l11.19,6.34A13.5,13.5,0,0,0,72.84,122V381.41C72.84,386.74,76.2,389.26,80.59,387.63Z" style="opacity:0.45"></path><path d="M79,111.41A13.59,13.59,0,0,0,72.84,122V381.42c0,6,4.24,8.41,9.41,5.43L202.52,317.4a15.39,15.39,0,0,0,6.93-12V44.07c0-4.4-3.12-6.2-6.93-4Z" style="fill:#BA68C8"></path><path d="M79,111.41A13.59,13.59,0,0,0,72.84,122V381.42c0,6,4.24,8.41,9.41,5.43L202.52,317.4a15.39,15.39,0,0,0,6.93-12V44.07c0-4.4-3.12-6.2-6.93-4Z" style="opacity:0.30000000000000004"></path><path d="M85.22,128.52a14.56,14.56,0,0,0-6.59,11.41V360.59c0,4.2,3,5.91,6.59,3.81l113.15-65.34A14.6,14.6,0,0,0,205,287.65V67c0-4.18-3-5.89-6.59-3.8Z" style="fill:#BA68C8"></path><path d="M85.22,128.52a14.56,14.56,0,0,0-6.59,11.41V360.59c0,4.2,3,5.91,6.59,3.81l113.15-65.34A14.6,14.6,0,0,0,205,287.65V67c0-4.18-3-5.89-6.59-3.8Z" style="opacity:0.45"></path><path d="M196.61,282.16V64.2L85.22,128.52a14.56,14.56,0,0,0-6.59,11.41v218L190,293.57A14.6,14.6,0,0,0,196.61,282.16Z" style="fill:#37474f"></path><path d="M132.36,89.64l20.06-11.57c1.19-.69,2.16-.2,2.16,1.09a4.65,4.65,0,0,1-2.16,3.6L132.36,94.34c-1.19.69-2.16.2-2.16-1.1A4.68,4.68,0,0,1,132.36,89.64Z"></path><path d="M166.77,69.75c1.13-.65,2-.12,2,1.17a4.48,4.48,0,0,1-2,3.52c-1.12.65-2,.12-2-1.17A4.49,4.49,0,0,1,166.77,69.75Z"></path><path d="M174.91,65.06c1.12-.65,2-.12,2,1.17a4.49,4.49,0,0,1-2,3.52c-1.12.65-2,.12-2-1.17A4.49,4.49,0,0,1,174.91,65.06Z"></path><path d="M109.87,102.61c1.12-.65,2-.13,2,1.17a4.51,4.51,0,0,1-2,3.52c-1.12.65-2,.12-2-1.17A4.48,4.48,0,0,1,109.87,102.61Z"></path><path d="M118,97.92c1.12-.65,2-.13,2,1.17a4.51,4.51,0,0,1-2,3.52c-1.13.65-2,.12-2-1.17A4.46,4.46,0,0,1,118,97.92Z"></path></g></g></g><g id="freepik--Screen--inject-40"><g id="freepik--Window--inject-40"><g id="freepik--dark-window--inject-40"><path d="M112.32,384.39V212.72h0V152.06a9.73,9.73,0,0,1,1.44-4.77l-6.11-3.51a9.87,9.87,0,0,0-1.46,4.8v15.6h0V380.85a3.21,3.21,0,0,0,1.84,2.94l.17.1,5.71,3.3A3.21,3.21,0,0,1,112.32,384.39Z" style="fill:#e0e0e0"></path><path d="M115.6,387.16a2.8,2.8,0,0,1-2.8-2.78V152.06a10.09,10.09,0,0,1,4.56-7.89L233,77.8a3.82,3.82,0,0,1,1.88-.59,2.18,2.18,0,0,1,.89.19,1.59,1.59,0,0,1,.32.19,1.47,1.47,0,0,1,.25.25l.1.1.13.19a.54.54,0,0,0,.05.11,1.68,1.68,0,0,1,.22.47,1.53,1.53,0,0,1,.1.34.19.19,0,0,0,0,.08.5.5,0,0,0,0,.12,1.39,1.39,0,0,1,.06.34c0,.17,0,.36,0,.55V312.43a10.07,10.07,0,0,1-4.56,7.89L124.7,382.24l-7.84,4.62a2.69,2.69,0,0,1-1.26.3Z" style="fill:#fafafa"></path><path d="M234.85,77.71a1.66,1.66,0,0,1,.7.15,1,1,0,0,1,.17.1l.08.06a.29.29,0,0,1,.11.11l.1.12.06.08,0,0a.71.71,0,0,0,.08.15,1.14,1.14,0,0,1,.15.34l0,.08a.69.69,0,0,1,0,.17s0,.07,0,.11a1.18,1.18,0,0,0,0,.2,1.3,1.3,0,0,1,0,.21c0,.16,0,.34,0,.52V312.43a9.68,9.68,0,0,1-4.3,7.46L124.45,381.82l-7.8,4.59a2.27,2.27,0,0,1-1.05.26,2.3,2.3,0,0,1-2.3-2.29V152.06a9.68,9.68,0,0,1,4.3-7.46L233.21,78.23a3.42,3.42,0,0,1,1.64-.52m0-1a4.36,4.36,0,0,0-2.13.65L117.11,143.74a10.62,10.62,0,0,0-4.8,8.32V384.38a3.29,3.29,0,0,0,3.29,3.28,3.19,3.19,0,0,0,1.51-.38l7.84-4.61h0l107.77-61.92a10.61,10.61,0,0,0,4.8-8.32V80.14a5.74,5.74,0,0,0,0-.6,1.56,1.56,0,0,0-.08-.44s0-.06,0-.1a1.72,1.72,0,0,0-.11-.42A2.31,2.31,0,0,0,237,78a1.32,1.32,0,0,0-.16-.25,1.15,1.15,0,0,0-.14-.17,1.62,1.62,0,0,0-.32-.32l0,0A2.38,2.38,0,0,0,236,77a2.5,2.5,0,0,0-1.1-.24Z" style="fill:#e0e0e0"></path><path d="M232.72,77.37,117.11,143.75a9.83,9.83,0,0,0-3.38,3.56l-6.09-3.53a9.64,9.64,0,0,1,3.33-3.51L226.59,73.9a3.38,3.38,0,0,1,3.49-.29c.86.53,4.84,2.79,5.85,3.34A3.45,3.45,0,0,0,232.72,77.37Z" style="fill:#f0f0f0"></path></g><path d="M130.63,159.66c5.14-2.82,9.05-.12,8.73,6s-4.74,13.44-9.88,16.26-9,.12-8.73-6S125.49,162.48,130.63,159.66Z" style="fill:#BA68C8"></path><path d="M130,163.9c1.32-.77,2.39-.15,2.39,1.38a5.3,5.3,0,0,1-2.39,4.15c-1.32.76-2.4.14-2.4-1.38A5.3,5.3,0,0,1,130,163.9Z" style="fill:#fafafa"></path><path d="M134.67,172.64c0-2.51-1.76-3.62-3.94-2.37l-1.35.79a8.67,8.67,0,0,0-3.94,6.81v.68s.93,1.91,4.61-.27a10.31,10.31,0,0,0,4.62-5.06Z" style="fill:#fafafa"></path><path d="M145.59,158.55c0,1.77,1.25,2.48,2.79,1.59l43-24.85a6.14,6.14,0,0,0,2.79-4.81c0-1.77-1.25-2.49-2.79-1.6l-43,24.85A6.16,6.16,0,0,0,145.59,158.55Z" style="fill:#BA68C8"></path><path d="M145.59,166.82c0,.82.58,1.14,1.29.73l19.85-11.46a2.82,2.82,0,0,0,1.29-2.22c0-.82-.57-1.15-1.29-.74L146.88,164.6A2.83,2.83,0,0,0,145.59,166.82Z" style="fill:#455a64"></path><path d="M119.41,193.8a.45.45,0,0,1-.4-.23.46.46,0,0,1,.17-.63l112.2-64.78a.46.46,0,1,1,.46.8l-112.2,64.78A.46.46,0,0,1,119.41,193.8Z" style="fill:#e0e0e0"></path><path d="M155.88,191.21l-.13-.17-.91-1.95v5a.8.8,0,0,1-.08.33.49.49,0,0,1-.18.23l-1.28.73a.14.14,0,0,1-.18,0,.29.29,0,0,1-.08-.24v-9.68a.67.67,0,0,1,.08-.33.46.46,0,0,1,.18-.22l1.13-.65c.13-.08.23-.08.29,0a1,1,0,0,1,.13.17l1.57,3.24,1.58-5.06a2.38,2.38,0,0,1,.13-.31.69.69,0,0,1,.29-.34l1.13-.65a.14.14,0,0,1,.18,0,.33.33,0,0,1,.08.24v9.68a.8.8,0,0,1-.08.33.49.49,0,0,1-.18.23l-1.28.73a.14.14,0,0,1-.18,0,.33.33,0,0,1-.08-.24v-5l-.91,3a2.84,2.84,0,0,1-.14.32.52.52,0,0,1-.22.26l-.63.36A.18.18,0,0,1,155.88,191.21Z" style="fill:#455a64"></path><path d="M163.79,191.77a1.32,1.32,0,0,1-.1.3.48.48,0,0,1-.18.23l-1.28.73a.11.11,0,0,1-.16,0,.25.25,0,0,1-.07-.21.37.37,0,0,1,0-.11l.74-3.11-2-5.89s0-.06,0-.1a.73.73,0,0,1,.07-.29.46.46,0,0,1,.17-.21l1.27-.73a.14.14,0,0,1,.19,0,.66.66,0,0,1,.09.19l1.08,3.27,1.07-4.52a2.52,2.52,0,0,1,.1-.29.49.49,0,0,1,.19-.23l1.28-.74a.12.12,0,0,1,.16,0,.28.28,0,0,1,.07.22.41.41,0,0,1,0,.11Z" style="fill:#455a64"></path><path d="M172.21,181.78a.52.52,0,0,1-.13-.17l-.92-1.94v5a.78.78,0,0,1-.07.33.6.6,0,0,1-.19.22l-1.27.74a.15.15,0,0,1-.19,0,.31.31,0,0,1-.08-.24V176a.8.8,0,0,1,.08-.33.45.45,0,0,1,.19-.23l1.12-.65q.19-.1.3,0a.92.92,0,0,1,.12.16l1.58,3.24,1.58-5.06a2.47,2.47,0,0,1,.12-.31.67.67,0,0,1,.29-.33l1.13-.65a.14.14,0,0,1,.19,0,.33.33,0,0,1,.08.24v9.68a.72.72,0,0,1-.08.32.57.57,0,0,1-.19.23l-1.27.74a.15.15,0,0,1-.19,0,.33.33,0,0,1-.07-.24v-4.95l-.92,3c0,.1-.08.2-.13.32a.59.59,0,0,1-.23.26l-.62.36C172.34,181.83,172.26,181.84,172.21,181.78Z" style="fill:#455a64"></path><path d="M177.43,174a.67.67,0,0,1,.08-.33.49.49,0,0,1,.18-.23l1.23-.71a.14.14,0,0,1,.18,0,.33.33,0,0,1,.08.24v3.79a1.66,1.66,0,0,0,.19.92c.12.19.32.2.61,0a1.4,1.4,0,0,0,.61-.74,3.33,3.33,0,0,0,.18-1.14V172.1a.78.78,0,0,1,.07-.33.53.53,0,0,1,.19-.22l1.22-.71c.08,0,.14,0,.19,0a.33.33,0,0,1,.08.24v7a.8.8,0,0,1-.08.33.45.45,0,0,1-.19.23l-1.12.65a.15.15,0,0,1-.19,0,.29.29,0,0,1-.08-.23v-.35a3.15,3.15,0,0,1-.19.43,2.68,2.68,0,0,1-.27.45,3.1,3.1,0,0,1-.39.43,2.33,2.33,0,0,1-.52.38c-.63.36-1.13.38-1.5,0a3.19,3.19,0,0,1-.56-2.27Z" style="fill:#455a64"></path><path d="M186.6,173.78c0-.11,0-.18-.07-.21s-.13,0-.25,0l-.46.15c-.19.07-.43.15-.72.23a1.06,1.06,0,0,1-1.13-.18,2,2,0,0,1-.4-1.42,3.51,3.51,0,0,1,.16-1,5.51,5.51,0,0,1,.46-1,5.27,5.27,0,0,1,.72-.93,4.29,4.29,0,0,1,.93-.72,2.58,2.58,0,0,1,.94-.36,1.49,1.49,0,0,1,.74.06.9.9,0,0,1,.49.39,1.24,1.24,0,0,1,.2.64.77.77,0,0,1-.07.32.51.51,0,0,1-.19.23l-1.16.67a.19.19,0,0,1-.17,0l-.15-.08a.53.53,0,0,0-.23,0,1.05,1.05,0,0,0-.4.16,1.39,1.39,0,0,0-.37.31.63.63,0,0,0-.15.41.41.41,0,0,0,.05.23s.09,0,.19,0a2.56,2.56,0,0,0,.41-.13l.69-.23q.89-.28,1.29.18a2,2,0,0,1,.4,1.36,3.57,3.57,0,0,1-.16,1,4.32,4.32,0,0,1-.49,1.05,5.14,5.14,0,0,1-.78,1,4.83,4.83,0,0,1-1,.79,2.63,2.63,0,0,1-1,.39,1.28,1.28,0,0,1-.75-.09,1,1,0,0,1-.46-.42,1.32,1.32,0,0,1-.18-.63.64.64,0,0,1,.07-.32.51.51,0,0,1,.19-.23l1.21-.7c.07,0,.12,0,.15,0l.13.11a.45.45,0,0,0,.22.05,1,1,0,0,0,.44-.17,1.88,1.88,0,0,0,.51-.41A.73.73,0,0,0,186.6,173.78Z" style="fill:#455a64"></path><path d="M191.06,164.53a.8.8,0,0,1-.08.33.46.46,0,0,1-.18.22l-1.23.71a.14.14,0,0,1-.18,0,.29.29,0,0,1-.08-.24V164a.67.67,0,0,1,.08-.33.46.46,0,0,1,.18-.22l1.23-.71a.14.14,0,0,1,.18,0,.33.33,0,0,1,.08.24Zm0,8.61a.8.8,0,0,1-.08.33.46.46,0,0,1-.18.22l-1.23.71a.14.14,0,0,1-.18,0,.29.29,0,0,1-.08-.24v-7a.67.67,0,0,1,.08-.33.49.49,0,0,1,.18-.23l1.23-.7a.13.13,0,0,1,.18,0,.33.33,0,0,1,.08.24Z" style="fill:#455a64"></path><path d="M193.83,167.52c0,.16,0,.34,0,.54s0,.37,0,.51a1,1,0,0,0,.27.72c.15.13.36.12.62,0a1.49,1.49,0,0,0,.49-.43,2.57,2.57,0,0,0,.28-.55,2.33,2.33,0,0,1,.11-.28.45.45,0,0,1,.17-.19l1.27-.73a.15.15,0,0,1,.19,0,.29.29,0,0,1,.08.24,5.54,5.54,0,0,1-.13.78,6.12,6.12,0,0,1-1.2,2.4,4.42,4.42,0,0,1-1.26,1.07,2.39,2.39,0,0,1-1,.35,1.31,1.31,0,0,1-.83-.21,1.74,1.74,0,0,1-.56-.76,3.69,3.69,0,0,1-.23-1.3c0-.15,0-.35,0-.6s0-.45,0-.6a6.19,6.19,0,0,1,.23-1.56,6.8,6.8,0,0,1,.56-1.41,6,6,0,0,1,.83-1.17,4.38,4.38,0,0,1,1-.83,2.29,2.29,0,0,1,1.26-.39,1.25,1.25,0,0,1,.79.34,1.64,1.64,0,0,1,.41.68,3,3,0,0,1,.13.63.67.67,0,0,1-.08.33.5.5,0,0,1-.19.23l-1.27.74c-.07,0-.13,0-.17,0a.4.4,0,0,1-.11-.14.49.49,0,0,0-.28-.24.73.73,0,0,0-.49.14,1.55,1.55,0,0,0-.62.69A2.49,2.49,0,0,0,193.83,167.52Z" style="fill:#455a64"></path><path d="M125.39,219.56c.47-.27.84-.31,1.1-.12s.39.61.39,1.27a3.72,3.72,0,0,1-.39,1.74,2.8,2.8,0,0,1-1.1,1.16l-.94.54v2a.45.45,0,0,1,0,.2.33.33,0,0,1-.11.14l-.48.27a.07.07,0,0,1-.11,0,.18.18,0,0,1,0-.14V220.8a.46.46,0,0,1,0-.2.33.33,0,0,1,.11-.14Zm-.94,3.46.91-.52a1.52,1.52,0,0,0,.53-.51,1.56,1.56,0,0,0,.2-.82c0-.34-.07-.53-.2-.58a.6.6,0,0,0-.53.11l-.91.52Z" style="fill:#455a64"></path><path d="M128.22,224a.51.51,0,0,1,0,.2.29.29,0,0,1-.11.13l-.45.26a.09.09,0,0,1-.11,0,.2.2,0,0,1-.05-.14v-5.91a.53.53,0,0,1,.05-.2.29.29,0,0,1,.11-.13l.45-.26a.09.09,0,0,1,.11,0,.2.2,0,0,1,0,.14Z" style="fill:#455a64"></path><path d="M129,220.23a2,2,0,0,1,.11-.47,2.13,2.13,0,0,1,.24-.54,2.45,2.45,0,0,1,.38-.53,2.17,2.17,0,0,1,.52-.43,1.53,1.53,0,0,1,.54-.19.57.57,0,0,1,.41.12.9.9,0,0,1,.27.44,2.68,2.68,0,0,1,.09.76V222a.46.46,0,0,1-.05.2.33.33,0,0,1-.11.14l-.44.26a.09.09,0,0,1-.11,0,.21.21,0,0,1,0-.15v-.29a3,3,0,0,1-.35.65,2,2,0,0,1-.59.52,1.07,1.07,0,0,1-.45.16.52.52,0,0,1-.33-.1.78.78,0,0,1-.21-.33,1.6,1.6,0,0,1-.07-.52,2.35,2.35,0,0,1,.28-1.14,3.34,3.34,0,0,1,.77-.92l1-.8c0-.24-.05-.39-.16-.43a.46.46,0,0,0-.39.07.76.76,0,0,0-.23.2,2,2,0,0,0-.15.26.76.76,0,0,1-.1.15.28.28,0,0,1-.1.09l-.54.31s-.07,0-.1,0S129,220.29,129,220.23Zm1,2a1.21,1.21,0,0,0,.35-.29,1.7,1.7,0,0,0,.26-.38,2.05,2.05,0,0,0,.16-.41,2,2,0,0,0,.05-.4v-.09l-.79.67a1.52,1.52,0,0,0-.35.39.76.76,0,0,0-.1.39c0,.12,0,.19.12.2A.48.48,0,0,0,130,222.2Z" style="fill:#455a64"></path><path d="M133.2,221.09l-1.15-3.45a.13.13,0,0,1,0-.06.49.49,0,0,1,.05-.2.24.24,0,0,1,.11-.13l.44-.26a.13.13,0,0,1,.12,0,.26.26,0,0,1,.07.11l.78,2.33.77-3.23s0-.12.07-.18a.39.39,0,0,1,.13-.15l.44-.25a.09.09,0,0,1,.11,0,.2.2,0,0,1,0,.14v.07l-1.65,6.81a.56.56,0,0,1-.07.19.28.28,0,0,1-.12.14l-.44.25a.08.08,0,0,1-.11,0,.21.21,0,0,1,0-.15V223Z" style="fill:#455a64"></path><path d="M136.48,219.21a.48.48,0,0,1,0,.2.29.29,0,0,1-.11.13l-.45.26a.09.09,0,0,1-.11,0,.2.2,0,0,1-.05-.14v-5.91a.45.45,0,0,1,.05-.19.27.27,0,0,1,.11-.14l.45-.26a.09.09,0,0,1,.11,0,.2.2,0,0,1,0,.14Z" style="fill:#455a64"></path><path d="M137.92,212.23a.09.09,0,0,1,.11,0,.2.2,0,0,1,.05.14v.71a.45.45,0,0,1-.05.19.27.27,0,0,1-.11.14l-.5.29a.09.09,0,0,1-.11,0,.2.2,0,0,1-.05-.14v-.7a.46.46,0,0,1,.05-.2.33.33,0,0,1,.11-.14Zm.13,6.07a.46.46,0,0,1-.05.2.27.27,0,0,1-.11.14l-.44.26a.09.09,0,0,1-.11,0,.21.21,0,0,1-.05-.15v-4.19a.49.49,0,0,1,.05-.2.29.29,0,0,1,.11-.13l.44-.26a.08.08,0,0,1,.11,0,.18.18,0,0,1,.05.14Z" style="fill:#455a64"></path><path d="M140.51,215.79c0-.07,0-.12,0-.14a.2.2,0,0,0-.14,0l-.28,0-.43.11a1,1,0,0,1-.42,0,.46.46,0,0,1-.28-.16.84.84,0,0,1-.14-.33,2.17,2.17,0,0,1,0-.47,2.52,2.52,0,0,1,.08-.58,2.59,2.59,0,0,1,.24-.6,3.31,3.31,0,0,1,.37-.55,2.28,2.28,0,0,1,.51-.42,1.47,1.47,0,0,1,.51-.19.7.7,0,0,1,.39,0,.53.53,0,0,1,.24.23.76.76,0,0,1,.1.37.38.38,0,0,1,0,.2.26.26,0,0,1-.12.13l-.45.26s-.1.05-.13,0l-.09-.06a.29.29,0,0,0-.14,0,.76.76,0,0,0-.27.1,1.53,1.53,0,0,0-.31.26.56.56,0,0,0-.13.37.28.28,0,0,0,0,.15.14.14,0,0,0,.12.05l.26,0,.41-.11a.73.73,0,0,1,.74.12,1.17,1.17,0,0,1,.21.78,2,2,0,0,1-.09.57,2.9,2.9,0,0,1-.25.61,2.78,2.78,0,0,1-.41.56,2.13,2.13,0,0,1-.55.44,1.44,1.44,0,0,1-.54.2.63.63,0,0,1-.4-.06.59.59,0,0,1-.26-.26,1,1,0,0,1-.09-.39.43.43,0,0,1,0-.19.35.35,0,0,1,.12-.14l.45-.26c.06,0,.1,0,.13,0l.1.08a.25.25,0,0,0,.15.06.74.74,0,0,0,.3-.11l.18-.12c.07-.05.12-.11.18-.16a1.27,1.27,0,0,0,.13-.19A.45.45,0,0,0,140.51,215.79Z" style="fill:#455a64"></path><path d="M142.92,214a.55.55,0,0,0,.1.39c.06.08.18.06.36,0l.35-.2a.08.08,0,0,1,.11,0,.18.18,0,0,1,0,.14v.59a.46.46,0,0,1,0,.2.33.33,0,0,1-.11.14l-.43.25c-.37.21-.65.23-.85.08a1.46,1.46,0,0,1-.29-1.09v-1.93l-.39.22a.09.09,0,0,1-.11,0,.2.2,0,0,1,0-.14v-.6a.51.51,0,0,1,0-.2.29.29,0,0,1,.11-.13l.39-.22V210a.37.37,0,0,1,.05-.2.27.27,0,0,1,.11-.14l.44-.25a.08.08,0,0,1,.11,0,.18.18,0,0,1,0,.14v1.47l.75-.44c.05,0,.08,0,.11,0a.2.2,0,0,1,.05.14v.6a.45.45,0,0,1-.05.19.23.23,0,0,1-.11.14l-.75.44Z" style="fill:#455a64"></path><path d="M146.12,212.55a.23.23,0,0,0,0-.14.17.17,0,0,0-.15,0,1.12,1.12,0,0,0-.27.05l-.43.1a.92.92,0,0,1-.43,0,.42.42,0,0,1-.27-.16.63.63,0,0,1-.14-.32,2.33,2.33,0,0,1,0-.48,2.07,2.07,0,0,1,.08-.58,3,3,0,0,1,.23-.6,3.29,3.29,0,0,1,.38-.54,2,2,0,0,1,.51-.42,1.45,1.45,0,0,1,.51-.2.66.66,0,0,1,.38,0,.56.56,0,0,1,.25.23.88.88,0,0,1,.1.37.48.48,0,0,1,0,.2.43.43,0,0,1-.12.14l-.45.26c-.06,0-.1,0-.13,0l-.1,0a.2.2,0,0,0-.14,0,.8.8,0,0,0-.26.11,1,1,0,0,0-.31.26.53.53,0,0,0-.13.36.28.28,0,0,0,0,.15.14.14,0,0,0,.12,0l.25,0,.42-.1c.35-.09.59-.05.73.11a1.12,1.12,0,0,1,.22.78,2.1,2.1,0,0,1-.09.58,2.6,2.6,0,0,1-.26.6,2.73,2.73,0,0,1-.4.56,2.53,2.53,0,0,1-.55.44,1.32,1.32,0,0,1-.55.2.64.64,0,0,1-.4-.06.53.53,0,0,1-.25-.26.79.79,0,0,1-.09-.38.36.36,0,0,1,0-.2.33.33,0,0,1,.11-.14l.46-.26s.1,0,.13,0l.1.09a.21.21,0,0,0,.15,0,.61.61,0,0,0,.3-.11l.18-.12a1.29,1.29,0,0,0,.17-.16.68.68,0,0,0,.13-.18A.41.41,0,0,0,146.12,212.55Z" style="fill:#455a64"></path><path d="M167.69,195.14a.12.12,0,0,1,.14,0,.51.51,0,0,1,.08.18l1.43,4.86s0,0,0,.06a.49.49,0,0,1,0,.2.33.33,0,0,1-.11.14l-.42.24c-.08,0-.14.05-.17,0a.24.24,0,0,1-.06-.11l-.25-.86-1.85,1.07-.25,1.14a.82.82,0,0,1-.06.19.4.4,0,0,1-.17.17l-.42.24a.07.07,0,0,1-.11,0,.17.17,0,0,1-.05-.14.17.17,0,0,1,0-.07l1.43-6.51a1.2,1.2,0,0,1,.08-.28.29.29,0,0,1,.14-.15Zm.32,3.77-.65-2.19-.64,2.93Z" style="fill:#455a64"></path><path d="M171.25,195.79a1.13,1.13,0,0,0-.51.53,2.11,2.11,0,0,0-.16.87v2.34a.51.51,0,0,1,0,.2.29.29,0,0,1-.11.13l-.45.26a.09.09,0,0,1-.11,0,.2.2,0,0,1,0-.14v-4.2a.51.51,0,0,1,0-.2.29.29,0,0,1,.11-.13l.45-.26a.09.09,0,0,1,.11,0,.2.2,0,0,1,0,.14v.21a3.11,3.11,0,0,1,.33-.52,1.71,1.71,0,0,1,.45-.38l.27-.15a.09.09,0,0,1,.11,0,.2.2,0,0,1,0,.14v.6a.43.43,0,0,1,0,.19.27.27,0,0,1-.11.14Z" style="fill:#455a64"></path><path d="M173.29,196.52a.59.59,0,0,0,.1.39c.06.07.18.06.36,0l.35-.2a.09.09,0,0,1,.12,0,.18.18,0,0,1,0,.14v.59a.45.45,0,0,1,0,.2.34.34,0,0,1-.12.14l-.43.25c-.36.21-.65.24-.84.08s-.3-.52-.3-1.09v-1.93l-.38.22a.1.1,0,0,1-.12,0,.2.2,0,0,1,0-.14v-.6a.43.43,0,0,1,0-.19c0-.07.07-.12.12-.14l.38-.22V192.5a.49.49,0,0,1,.05-.2.29.29,0,0,1,.11-.13l.44-.26a.08.08,0,0,1,.11,0s0,.07,0,.14v1.47l.76-.44a.09.09,0,0,1,.11,0,.2.2,0,0,1,0,.14v.6a.51.51,0,0,1,0,.2.29.29,0,0,1-.11.13l-.76.44Z" style="fill:#455a64"></path><path d="M175.47,190.56a.09.09,0,0,1,.11,0,.2.2,0,0,1,0,.14v.71a.43.43,0,0,1,0,.19.27.27,0,0,1-.11.14L175,192a.09.09,0,0,1-.11,0,.2.2,0,0,1,0-.14v-.7a.45.45,0,0,1,0-.2.33.33,0,0,1,.11-.14Zm.12,6.07a.45.45,0,0,1,0,.2.33.33,0,0,1-.11.14l-.45.26a.09.09,0,0,1-.11,0,.21.21,0,0,1,0-.15v-4.19a.48.48,0,0,1,0-.2.29.29,0,0,1,.11-.13l.45-.26a.08.08,0,0,1,.11,0,.2.2,0,0,1,0,.14Z" style="fill:#455a64"></path><path d="M178.06,194.12a.21.21,0,0,0,0-.14.21.21,0,0,0-.15,0l-.27.05-.43.11a1.08,1.08,0,0,1-.43,0,.47.47,0,0,1-.27-.16.63.63,0,0,1-.14-.33,2,2,0,0,1,0-1,2.57,2.57,0,0,1,.23-.6,3.37,3.37,0,0,1,.38-.55,2.59,2.59,0,0,1,.51-.42,1.4,1.4,0,0,1,.51-.19.66.66,0,0,1,.38,0,.51.51,0,0,1,.25.23.88.88,0,0,1,.1.37.39.39,0,0,1,0,.2.29.29,0,0,1-.11.13l-.45.26c-.06,0-.1,0-.13,0l-.1-.06a.26.26,0,0,0-.14,0,.72.72,0,0,0-.26.1,1.3,1.3,0,0,0-.31.26.57.57,0,0,0-.14.37.27.27,0,0,0,0,.15.14.14,0,0,0,.12,0l.25,0,.42-.11c.35-.08.59,0,.73.12a1.17,1.17,0,0,1,.22.78,2,2,0,0,1-.09.57,2.49,2.49,0,0,1-.26.61,2.44,2.44,0,0,1-.41.56,2.27,2.27,0,0,1-.54.44,1.48,1.48,0,0,1-.55.2.64.64,0,0,1-.4-.06.57.57,0,0,1-.25-.26.86.86,0,0,1-.09-.39.33.33,0,0,1,0-.19.27.27,0,0,1,.11-.14l.45-.26c.06,0,.11,0,.14,0l.09.08a.26.26,0,0,0,.16.06.74.74,0,0,0,.3-.11l.18-.12.17-.16a.8.8,0,0,0,.13-.19A.35.35,0,0,0,178.06,194.12Z" style="fill:#455a64"></path><path d="M180.46,192.37a.61.61,0,0,0,.1.39c.07.08.18.06.36,0l.36-.2a.08.08,0,0,1,.11,0,.18.18,0,0,1,0,.14v.59a.45.45,0,0,1,0,.2.33.33,0,0,1-.11.14l-.44.25c-.36.21-.64.23-.84.08a1.42,1.42,0,0,1-.3-1.09v-1.93l-.38.22a.09.09,0,0,1-.11,0,.2.2,0,0,1-.05-.14v-.6a.53.53,0,0,1,.05-.2.29.29,0,0,1,.11-.13l.38-.22v-1.47a.49.49,0,0,1,.05-.2.33.33,0,0,1,.11-.14l.45-.25a.08.08,0,0,1,.11,0,.18.18,0,0,1,0,.14v1.47l.76-.44a.09.09,0,0,1,.11,0,.2.2,0,0,1,0,.14v.6a.53.53,0,0,1,0,.2.29.29,0,0,1-.11.13l-.76.44Z" style="fill:#455a64"></path><path d="M183.66,190.88a.18.18,0,0,0,0-.14.18.18,0,0,0-.14,0,1.12,1.12,0,0,0-.27,0l-.44.1a.88.88,0,0,1-.42,0,.45.45,0,0,1-.28-.15.91.91,0,0,1-.14-.33,2.33,2.33,0,0,1,0-.48,2.52,2.52,0,0,1,.08-.58,3,3,0,0,1,.24-.6,2.78,2.78,0,0,1,.38-.54,1.83,1.83,0,0,1,.5-.42,1.56,1.56,0,0,1,.52-.2.67.67,0,0,1,.38,0,.53.53,0,0,1,.24.23.76.76,0,0,1,.1.37.36.36,0,0,1,0,.2.33.33,0,0,1-.11.14l-.45.26c-.06,0-.11,0-.14,0l-.09-.05a.21.21,0,0,0-.14,0,.6.6,0,0,0-.27.1,1.26,1.26,0,0,0-.31.26.53.53,0,0,0-.13.36.28.28,0,0,0,0,.15.14.14,0,0,0,.12.05l.26,0,.41-.1c.35-.09.6-.05.74.11a1.17,1.17,0,0,1,.21.78,2.1,2.1,0,0,1-.09.58,2.55,2.55,0,0,1-.25.6,2.78,2.78,0,0,1-.41.56,2.13,2.13,0,0,1-.55.44,1.29,1.29,0,0,1-.54.2.64.64,0,0,1-.4-.06.49.49,0,0,1-.25-.26.93.93,0,0,1-.1-.38.37.37,0,0,1,0-.2.33.33,0,0,1,.11-.14l.45-.26c.06,0,.1,0,.13,0l.1.09a.25.25,0,0,0,.16.05.62.62,0,0,0,.29-.11.94.94,0,0,0,.18-.12,1.37,1.37,0,0,0,.18-.16l.13-.18A.49.49,0,0,0,183.66,190.88Z" style="fill:#455a64"></path><path d="M206,173c.07,0,.11,0,.14,0a.43.43,0,0,1,.09.18l1.43,4.87v.05a.45.45,0,0,1,0,.2.33.33,0,0,1-.11.14l-.42.24c-.08.05-.14.05-.17,0a.24.24,0,0,1-.06-.11l-.25-.86-1.85,1.07-.25,1.15a1.08,1.08,0,0,1-.07.18.33.33,0,0,1-.16.17l-.42.24a.08.08,0,0,1-.11,0,.21.21,0,0,1,0-.15.13.13,0,0,1,0-.06l1.43-6.52a1.36,1.36,0,0,1,.08-.28.34.34,0,0,1,.14-.15Zm.32,3.76-.64-2.19-.64,2.93Z" style="fill:#455a64"></path><path d="M208.88,177.41a.48.48,0,0,1,0,.2.37.37,0,0,1-.11.13l-.45.26a.09.09,0,0,1-.11,0,.2.2,0,0,1,0-.14v-5.91a.45.45,0,0,1,0-.19.27.27,0,0,1,.11-.14l.45-.26a.09.09,0,0,1,.11,0,.2.2,0,0,1,0,.14Z" style="fill:#455a64"></path><path d="M211.33,171.47a.8.8,0,0,1,.53-.13.61.61,0,0,1,.4.23,1.39,1.39,0,0,1,.27.53,3.11,3.11,0,0,1,.11.73v.63a5.19,5.19,0,0,1-.11.86,4.48,4.48,0,0,1-.27.83,3.19,3.19,0,0,1-.4.7,1.7,1.7,0,0,1-.53.48,1.13,1.13,0,0,1-.32.13.72.72,0,0,1-.25,0,.36.36,0,0,1-.19-.07.63.63,0,0,1-.12-.1v.2a.46.46,0,0,1,0,.2.27.27,0,0,1-.11.14l-.44.26s-.08,0-.11,0a.17.17,0,0,1-.05-.15V171a.37.37,0,0,1,.05-.2.24.24,0,0,1,.11-.13l.44-.26a.08.08,0,0,1,.11,0,.2.2,0,0,1,0,.14v1.92a2.72,2.72,0,0,1,.12-.25,2,2,0,0,1,.19-.28,1.62,1.62,0,0,1,.25-.28A1.57,1.57,0,0,1,211.33,171.47Zm.55,1.86c0-.37-.11-.61-.24-.7a.41.41,0,0,0-.48,0,1.34,1.34,0,0,0-.49.55,2.15,2.15,0,0,0-.22.87c0,.09,0,.21,0,.34a3.33,3.33,0,0,0,0,.34.84.84,0,0,0,.22.62.42.42,0,0,0,.49,0,1.28,1.28,0,0,0,.48-.54,2.51,2.51,0,0,0,.24-1A4.34,4.34,0,0,0,211.88,173.33Z" style="fill:#455a64"></path><path d="M213.28,170.68a.37.37,0,0,1,.05-.2.27.27,0,0,1,.11-.14l.44-.25a.08.08,0,0,1,.11,0,.23.23,0,0,1,0,.15v2.28a1.53,1.53,0,0,0,.15.78c.1.16.26.18.49,0a1.1,1.1,0,0,0,.47-.59,2.61,2.61,0,0,0,.16-1V169.5a.53.53,0,0,1,.05-.2.29.29,0,0,1,.11-.13l.45-.26a.09.09,0,0,1,.11,0,.2.2,0,0,1,0,.14v4.2a.51.51,0,0,1,0,.2.29.29,0,0,1-.11.13l-.45.26a.09.09,0,0,1-.11,0,.2.2,0,0,1-.05-.14v-.21a4.18,4.18,0,0,1-.33.57,1.55,1.55,0,0,1-.48.44,1,1,0,0,1-.59.17.55.55,0,0,1-.37-.24,1.37,1.37,0,0,1-.2-.56,4.54,4.54,0,0,1-.06-.77Z" style="fill:#455a64"></path><path d="M217.64,168.37a2.47,2.47,0,0,1,.34-.6,1.44,1.44,0,0,1,.41-.38.8.8,0,0,1,.61-.14.68.68,0,0,1,.36.35,3.43,3.43,0,0,1,.19-.44c.08-.13.15-.26.24-.38a1.84,1.84,0,0,1,.26-.29,1.5,1.5,0,0,1,.26-.21,1,1,0,0,1,.56-.15.6.6,0,0,1,.36.26,1.41,1.41,0,0,1,.19.55,4.8,4.8,0,0,1,.05.78v2.42a.48.48,0,0,1,0,.2.29.29,0,0,1-.11.13l-.45.26a.09.09,0,0,1-.11,0,.2.2,0,0,1,0-.14V168.2a1.2,1.2,0,0,0-.15-.76q-.15-.16-.42,0a1.1,1.1,0,0,0-.41.46,2.11,2.11,0,0,0-.17.93v2.42a.45.45,0,0,1-.05.19.27.27,0,0,1-.11.14l-.44.26a.1.1,0,0,1-.12,0,.2.2,0,0,1,0-.14v-2.38a1.26,1.26,0,0,0-.15-.77c-.11-.1-.25-.1-.43,0a1,1,0,0,0-.41.48,2.24,2.24,0,0,0-.17.95v2.37a.46.46,0,0,1,0,.2.27.27,0,0,1-.11.14l-.44.25a.08.08,0,0,1-.11,0,.21.21,0,0,1-.05-.15V168.6a.49.49,0,0,1,.05-.2.33.33,0,0,1,.11-.14l.44-.25a.08.08,0,0,1,.11,0,.18.18,0,0,1,0,.14Z" style="fill:#455a64"></path><path d="M223.91,167.64a.23.23,0,0,0,0-.14.21.21,0,0,0-.15,0l-.27,0-.43.11a.92.92,0,0,1-.43,0,.47.47,0,0,1-.27-.16.63.63,0,0,1-.14-.32,2.33,2.33,0,0,1,0-.48,2.07,2.07,0,0,1,.08-.58,3,3,0,0,1,.23-.6,3.29,3.29,0,0,1,.38-.54,2,2,0,0,1,.51-.42,1.45,1.45,0,0,1,.51-.2.66.66,0,0,1,.38,0,.51.51,0,0,1,.25.23.88.88,0,0,1,.1.37.37.37,0,0,1-.05.2.33.33,0,0,1-.11.14l-.45.26c-.06,0-.1,0-.13,0l-.1-.06a.26.26,0,0,0-.14,0,.62.62,0,0,0-.26.11,1,1,0,0,0-.31.26.52.52,0,0,0-.14.36.27.27,0,0,0,0,.15.14.14,0,0,0,.12.05l.25,0,.42-.1c.35-.09.59-.05.73.11a1.17,1.17,0,0,1,.22.78,2.1,2.1,0,0,1-.09.58,2.6,2.6,0,0,1-.26.6,2.44,2.44,0,0,1-.41.56,2.27,2.27,0,0,1-.54.44,1.32,1.32,0,0,1-.55.2.64.64,0,0,1-.4-.06.57.57,0,0,1-.25-.26.83.83,0,0,1-.09-.39.33.33,0,0,1,0-.19.27.27,0,0,1,.11-.14l.45-.26c.06,0,.11,0,.14,0l.09.08a.26.26,0,0,0,.16.06.61.61,0,0,0,.3-.11l.18-.12a1.29,1.29,0,0,0,.17-.16.8.8,0,0,0,.13-.19A.35.35,0,0,0,223.91,167.64Z" style="fill:#455a64"></path><polygon points="123.15 230.09 147.75 215.87 147.75 217.3 123.15 231.53 123.15 230.09" style="fill:#BA68C8"></polygon><path d="M124.35,241.31l20-11.57c.66-.38,1.2-.07,1.2.69v23.15a2.65,2.65,0,0,1-1.2,2.07l-20,11.58c-.66.38-1.19.07-1.19-.69V243.39A2.64,2.64,0,0,1,124.35,241.31Z" style="fill:#455a64"></path><path d="M155.06,232.22l33.42-19.3c1.1-.63,2-.12,2,1.15v.85a4.39,4.39,0,0,1-2,3.45l-33.42,19.29c-1.1.64-2,.12-2-1.15v-.84A4.39,4.39,0,0,1,155.06,232.22Z" style="fill:#455a64"></path><path d="M154.27,241.31l23.79-13.73c.66-.38,1.19-.07,1.19.69v.23a2.66,2.66,0,0,1-1.19,2.08l-23.79,13.73c-.66.38-1.2.07-1.2-.69v-.23A2.67,2.67,0,0,1,154.27,241.31Z" style="fill:#e0e0e0"></path><path d="M124.35,275.87l20-11.57c.66-.38,1.2-.07,1.2.69v23.15a2.65,2.65,0,0,1-1.2,2.07l-20,11.58c-.66.38-1.19.07-1.19-.69V278A2.64,2.64,0,0,1,124.35,275.87Z" style="fill:#BA68C8"></path><path d="M130.57,276.91a1,1,0,0,0-.49.86v11.86a2.36,2.36,0,0,0-.76.28,5,5,0,0,0-2.28,3.95c0,1.48,1,2.05,2.28,1.31a5,5,0,0,0,2.28-3.94v-11l7.87-4.53h0v8.51a2.15,2.15,0,0,0-.76.28,5,5,0,0,0-2.28,3.94c0,1.49,1,2.06,2.28,1.32a5,5,0,0,0,2.28-3.95h0V271.5a.34.34,0,0,0-.51-.29Z" style="fill:#37474f"></path><path d="M155.06,266.78l33.42-19.3c1.1-.63,2-.12,2,1.15v.85a4.39,4.39,0,0,1-2,3.45l-33.42,19.29c-1.1.64-2,.12-2-1.15v-.84A4.39,4.39,0,0,1,155.06,266.78Z" style="fill:#455a64"></path><path d="M154.27,275.87l23.79-13.73c.66-.38,1.19-.07,1.19.69v.23a2.66,2.66,0,0,1-1.19,2.08l-23.79,13.73c-.66.38-1.2.07-1.2-.69V278A2.67,2.67,0,0,1,154.27,275.87Z" style="fill:#e0e0e0"></path><path d="M124.35,310.41l20-11.58c.66-.38,1.2-.07,1.2.69v23.16a2.65,2.65,0,0,1-1.2,2.07l-20,11.57c-.66.38-1.19.07-1.19-.69V312.48A2.62,2.62,0,0,1,124.35,310.41Z" style="fill:#BA68C8"></path><path d="M124.35,310.41l20-11.58c.66-.38,1.2-.07,1.2.69v23.16a2.65,2.65,0,0,1-1.2,2.07l-20,11.57c-.66.38-1.19.07-1.19-.69V312.48A2.62,2.62,0,0,1,124.35,310.41Z" style="opacity:0.2"></path><path d="M130.57,311.44a1,1,0,0,0-.49.86v11.87a2.15,2.15,0,0,0-.76.28,5,5,0,0,0-2.28,3.94c0,1.49,1,2.06,2.28,1.32a5,5,0,0,0,2.28-3.95v-11l7.87-4.53h0v8.51a2.36,2.36,0,0,0-.76.28,5,5,0,0,0-2.28,3.95c0,1.48,1,2.06,2.28,1.31a5,5,0,0,0,2.28-3.94h0V306a.34.34,0,0,0-.51-.3Z" style="fill:#ebebeb"></path><path d="M155.06,301.31,188.48,282c1.1-.64,2-.12,2,1.15V284a4.41,4.41,0,0,1-2,3.46l-33.42,19.29c-1.1.64-2,.12-2-1.15v-.85A4.41,4.41,0,0,1,155.06,301.31Z" style="fill:#BA68C8"></path><path d="M154.27,310.41l23.79-13.74c.66-.38,1.19-.07,1.19.7v.23a2.64,2.64,0,0,1-1.19,2.07l-23.79,13.74c-.66.38-1.2.07-1.2-.69v-.24A2.65,2.65,0,0,1,154.27,310.41Z" style="fill:#455a64"></path><path d="M124.35,345l20-11.57c.66-.38,1.2-.07,1.2.69v23.15a2.65,2.65,0,0,1-1.2,2.07l-20,11.58c-.66.38-1.19.07-1.19-.69V347A2.64,2.64,0,0,1,124.35,345Z" style="fill:#BA68C8"></path><path d="M124.35,345l20-11.57c.66-.38,1.2-.07,1.2.69v23.15a2.65,2.65,0,0,1-1.2,2.07l-20,11.58c-.66.38-1.19.07-1.19-.69V347A2.64,2.64,0,0,1,124.35,345Z" style="opacity:0.35000000000000003"></path><path d="M130.57,346a1,1,0,0,0-.49.86v11.86a2.36,2.36,0,0,0-.76.28,5,5,0,0,0-2.28,3.95c0,1.48,1,2.05,2.28,1.31a5,5,0,0,0,2.28-3.95v-11l7.87-4.53h0v8.52a2.15,2.15,0,0,0-.76.28,5,5,0,0,0-2.28,3.94c0,1.49,1,2.06,2.28,1.32a5,5,0,0,0,2.28-4h0V340.58a.34.34,0,0,0-.51-.29Z" style="fill:#BA68C8"></path><path d="M155.06,335.86l33.42-19.3c1.1-.63,2-.12,2,1.15v.85a4.39,4.39,0,0,1-2,3.45L155.06,341.3c-1.1.64-2,.12-2-1.15v-.84A4.39,4.39,0,0,1,155.06,335.86Z" style="fill:#455a64"></path><path d="M154.27,345l23.79-13.73c.66-.38,1.19-.07,1.19.69v.23a2.66,2.66,0,0,1-1.19,2.08L154.27,348c-.66.38-1.2.07-1.2-.69V347A2.67,2.67,0,0,1,154.27,345Z" style="fill:#e0e0e0"></path><path d="M139.58,245.93a.69.69,0,0,0-.94-.25l-3.58,2.06v-5.9a.69.69,0,0,0-1.38,0v6.7L129.41,251a.7.7,0,0,0-.25.95.69.69,0,0,0,.6.34.73.73,0,0,0,.35-.09l3.57-2.06V256a.69.69,0,0,0,1.38,0v-6.7l4.27-2.46A.7.7,0,0,0,139.58,245.93Z" style="fill:#e0e0e0"></path><path d="M117.4,155.27v-1.51a1,1,0,0,1,.29-.76l.08-.05c.16-.09.28.1.28.43v1.51a1,1,0,0,1-.28.76l-.08,0C117.53,155.79,117.4,155.6,117.4,155.27Z" style="fill:#455a64"></path><path d="M118.71,154.51V151.9a1,1,0,0,1,.29-.76l.08,0c.16-.1.29.1.29.42v2.61a1,1,0,0,1-.29.76l-.08.05C118.84,155,118.71,154.84,118.71,154.51Z" style="fill:#455a64"></path><path d="M120,153.75V150a1,1,0,0,1,.29-.75l.08,0c.16-.09.29.1.29.43v3.7a1,1,0,0,1-.29.76l-.08.05C120.15,154.27,120,154.08,120,153.75Z" style="fill:#455a64"></path><path d="M121.33,153v-6.41a1,1,0,0,1,.29-.76l.08,0c.16-.09.29.1.29.42v6.41a1,1,0,0,1-.29.75l-.08,0C121.46,153.51,121.33,153.32,121.33,153Z" style="fill:#455a64"></path><path d="M124.89,151.38s0-.09,0-.19v-.94l-1.47.85c-.08.05-.12,0-.12-.13v-.34a.92.92,0,0,1,0-.18s0-.11,0-.18l1.56-4.27a1.44,1.44,0,0,1,.08-.17.3.3,0,0,1,.1-.09l.21-.12c.06,0,.1,0,.13,0a.31.31,0,0,1,0,.2v3.29l.33-.19c.06,0,.1,0,.13,0a.51.51,0,0,1,0,.21v.22a.78.78,0,0,1,0,.24.29.29,0,0,1-.13.14l-.33.19v.94a.55.55,0,0,1,0,.24.43.43,0,0,1-.13.14l-.25.14C125,151.41,124.91,151.41,124.89,151.38Zm0-2v-2.34l-1.06,3Z" style="fill:#455a64"></path><path d="M126.63,149.81a3.17,3.17,0,0,1-.43-1.92,6.08,6.08,0,0,1,.44-2.42,2.9,2.9,0,0,1,1.21-1.47,1.79,1.79,0,0,1,.59-.22.62.62,0,0,1,.46.07s0,0,0,.08a.65.65,0,0,1,0,.11l-.13.49a.27.27,0,0,1-.06.11h-.06a.82.82,0,0,0-.75.12,2,2,0,0,0-.83,1,4.61,4.61,0,0,0-.3,1.79,2.39,2.39,0,0,0,.29,1.44c.19.24.46.27.8.07a1.83,1.83,0,0,0,.36-.26,1.68,1.68,0,0,0,.29-.32V147l-.61.36c-.06,0-.11,0-.13,0a.31.31,0,0,1,0-.2v-.22a.55.55,0,0,1,0-.24.34.34,0,0,1,.13-.14l1-.56c.07,0,.11,0,.14,0a.43.43,0,0,1,.05.24v2.18a1,1,0,0,1,0,.2.33.33,0,0,1-.06.14,3.12,3.12,0,0,1-1.16,1.15C127.33,150.16,126.92,150.15,126.63,149.81Z" style="fill:#455a64"></path><path d="M230,86.38c-.19-.27-.42-.35-.66-.21l-5,2.87a2.49,2.49,0,0,0-.77,2v3.72a2.12,2.12,0,0,0,.29,1.18.61.61,0,0,0,.27.24.39.39,0,0,0,.39,0l5-2.86a2.53,2.53,0,0,0,.77-2V87.56A2.15,2.15,0,0,0,230,86.38Zm-5.92,9.08a1,1,0,0,1-.11-.54V91.2a2,2,0,0,1,.59-1.52l5-2.87a.27.27,0,0,1,.21,0,.32.32,0,0,1,.09.08,1.05,1.05,0,0,1,.1.54v3.71a2,2,0,0,1-.58,1.54l-5,2.86A.21.21,0,0,1,224.07,95.46Z" style="fill:#455a64"></path><path d="M227.21,88.81V93.2l-2.68,1.55a.18.18,0,0,1-.09,0,.59.59,0,0,0,0-.14V91.29a1.51,1.51,0,0,1,.44-1.14Z" style="fill:#455a64"></path><path d="M230.52,87.45c.19-.11.34.42.34,1.18v.69a2.81,2.81,0,0,1-.34,1.61l-.34.23V87.64Z" style="fill:#455a64"></path><path d="M135.05,144.48a2.24,2.24,0,0,1-.85,1.8c-.48.27-.86-.09-.86-.82a2.26,2.26,0,0,1,.86-1.81C134.67,143.38,135.05,143.75,135.05,144.48Z" style="fill:#455a64"></path><path d="M134.2,141.5a5.17,5.17,0,0,0-2,3c-.08.27,0,.52.09.6h0c.16.1.4-.11.5-.44a3.52,3.52,0,0,1,1.4-2.1.9.9,0,0,1,1.39.49c.1.22.34.16.5-.13h0a.85.85,0,0,0,.09-.7A1.29,1.29,0,0,0,134.2,141.5Z" style="fill:#455a64"></path><path d="M134.2,139.4a8,8,0,0,0-3,4.34c-.1.28-.07.56.07.65h0c.16.1.38-.09.49-.41a6.47,6.47,0,0,1,2.49-3.55,1.64,1.64,0,0,1,2.48.68c.11.19.34.13.49-.15h0a.83.83,0,0,0,.07-.74A2,2,0,0,0,134.2,139.4Z" style="fill:#455a64"></path><path d="M169.68,127.46a.52.52,0,0,1,0,.21.42.42,0,0,1-.12.14l-.24.14a.1.1,0,0,1-.12,0,.21.21,0,0,1,0-.15v-5.07l-1,1.69a.31.31,0,0,1-.12.13.11.11,0,0,1-.11,0l-.14-.2a.29.29,0,0,1,0-.17.48.48,0,0,1,.07-.2l1.28-2.25a.41.41,0,0,1,.09-.12l.1-.06.24-.14a.09.09,0,0,1,.12,0,.21.21,0,0,1,0,.15Z" style="fill:#455a64"></path><path d="M171.1,122.56a.09.09,0,0,1,.11,0,.21.21,0,0,1,0,.15v.62a.48.48,0,0,1,0,.2.33.33,0,0,1-.11.14l-.41.23a.08.08,0,0,1-.11,0,.21.21,0,0,1-.05-.15v-.61a.54.54,0,0,1,.05-.21.29.29,0,0,1,.11-.13Zm0,3.22a.09.09,0,0,1,.11,0,.21.21,0,0,1,0,.15v.62a.48.48,0,0,1,0,.2.33.33,0,0,1-.11.14l-.41.23a.08.08,0,0,1-.11,0,.21.21,0,0,1-.05-.15v-.61a.54.54,0,0,1,.05-.21.29.29,0,0,1,.11-.13Z" style="fill:#455a64"></path><path d="M174,125.2a.09.09,0,0,1-.11,0,.21.21,0,0,1,0-.15v-1.26L172,124.86a.1.1,0,0,1-.12,0,.21.21,0,0,1,0-.15v-.33a.5.5,0,0,1,0-.16.66.66,0,0,1,.06-.2l1.89-4.9a1.12,1.12,0,0,1,.1-.22.4.4,0,0,1,.13-.13l.24-.14a.08.08,0,0,1,.11,0,.16.16,0,0,1,.05.14v3.85l.51-.3a.1.1,0,0,1,.12,0,.21.21,0,0,1,.05.15v.33a.49.49,0,0,1-.05.2c0,.07-.07.12-.12.14l-.51.3v1.26a.41.41,0,0,1-.05.21.33.33,0,0,1-.11.14Zm-.16-2.25v-2.6l-1.29,3.35Z" style="fill:#455a64"></path><path d="M176.11,122.45a1.17,1.17,0,0,0,.09.24.33.33,0,0,0,.16.17.49.49,0,0,0,.28,0,1.24,1.24,0,0,0,.46-.19,1.73,1.73,0,0,0,.35-.27,2,2,0,0,0,.3-.39,2.2,2.2,0,0,0,.19-.47A2.07,2.07,0,0,0,178,121a1.32,1.32,0,0,0-.07-.45.41.41,0,0,0-.19-.23.44.44,0,0,0-.3,0,1.07,1.07,0,0,0-.36.15l-.5.29a.09.09,0,0,1-.11,0,.21.21,0,0,1-.05-.15v-.33a.51.51,0,0,1,0-.17l.07-.16,1.07-2.41-1.72,1a.09.09,0,0,1-.11,0,.21.21,0,0,1-.05-.15V118a.46.46,0,0,1,.05-.2.27.27,0,0,1,.11-.14l2.36-1.36s.08,0,.11,0a.21.21,0,0,1,0,.15v.33a.55.55,0,0,1,0,.17,1.67,1.67,0,0,1-.08.2l-1.06,2.37a1.19,1.19,0,0,1,.55-.17.56.56,0,0,1,.42.13.92.92,0,0,1,.28.43,2.43,2.43,0,0,1,.09.72,3.49,3.49,0,0,1-.11.91,4.14,4.14,0,0,1-.32.81,3.43,3.43,0,0,1-.47.66,2.45,2.45,0,0,1-.58.47,1.75,1.75,0,0,1-.69.26.68.68,0,0,1-.48-.11.66.66,0,0,1-.28-.35,1.79,1.79,0,0,1-.1-.54.35.35,0,0,1,0-.17s0-.09.09-.11l.28-.16a.07.07,0,0,1,.1,0A.19.19,0,0,1,176.11,122.45Z" style="fill:#455a64"></path></g></g><g id="freepik--black-screen--inject-40"><g id="freepik--playlist-window--inject-40"><g id="freepik--instagram-window--inject-40"><g id="freepik--dark-window--inject-40"><path d="M168.59,416.8V245.21h0V184.58a9.68,9.68,0,0,1,1.43-4.76l-6.11-3.52a9.87,9.87,0,0,0-1.46,4.8v15.6h0V413.35a3.35,3.35,0,0,0,1.84,2.93l5.88,3.4A3.33,3.33,0,0,1,168.59,416.8Z" style="fill:#37474f;opacity:0.9"></path><path d="M293.77,112.06a3.11,3.11,0,0,0-.08-.44.1.1,0,0,0,0-.09,1.43,1.43,0,0,0-.11-.43,2.25,2.25,0,0,0-.28-.61.72.72,0,0,0-.16-.25.86.86,0,0,0-.14-.18,1.57,1.57,0,0,0-.32-.31l0,0a1.69,1.69,0,0,0-.41-.24,3.48,3.48,0,0,0-3.23.41L173.38,176.27a10.63,10.63,0,0,0-4.8,8.31V416.8a3.19,3.19,0,0,0,4.78,2.88l0,0,7.84-4.54h0L289,353.24a10.6,10.6,0,0,0,4.81-8.31V112.66C293.8,112.46,293.78,112.25,293.77,112.06Z" style="fill:#455a64;opacity:0.8"></path><g style="opacity:0.5"><path d="M289,109.89l-115.6,66.38a9.83,9.83,0,0,0-3.38,3.56l-6.1-3.53a9.55,9.55,0,0,1,3.34-3.5l115.61-66.38a3.37,3.37,0,0,1,3.49-.28c.86.52,4.84,2.79,5.85,3.33A3.45,3.45,0,0,0,289,109.89Z" style="fill:#37474f"></path></g></g></g><path d="M211.53,183.84l47.61-27.45c1.32-.76,2.4-.14,2.4,1.39v54.93a5.3,5.3,0,0,1-2.39,4.15l-47.57,27.47c-1.33.76-2.4.14-2.4-1.39l0-54.95A5.3,5.3,0,0,1,211.53,183.84Z" style="fill:#BA68C8"></path><path d="M211.53,183.84l47.61-27.45c1.32-.76,2.4-.14,2.4,1.39v54.93a5.3,5.3,0,0,1-2.39,4.15l-47.57,27.47c-1.33.76-2.4.14-2.4-1.39l0-54.95A5.3,5.3,0,0,1,211.53,183.84Z" style="opacity:0.2"></path><path d="M226.28,186.23a2.29,2.29,0,0,0-1.15,2v27.38a5.11,5.11,0,0,0-1.76.64,11.58,11.58,0,0,0-5.25,9.11c0,3.42,2.29,4.74,5.25,3a11.62,11.62,0,0,0,5.26-9.11V193.92l18.17-10.45h0v19.64a5.11,5.11,0,0,0-1.76.64,11.6,11.6,0,0,0-5.25,9.11c0,3.42,2.29,4.74,5.25,3a11.59,11.59,0,0,0,5.26-9.1h0V173.75a.78.78,0,0,0-1.17-.68Z" style="fill:#f5f5f5"></path><path d="M188.29,268.93c3.65-2,6.43-.08,6.2,4.29s-3.37,9.55-7,11.56-6.43.08-6.21-4.29S184.63,270.94,188.29,268.93Z" style="fill:#BA68C8"></path><path d="M187.8,271.94c.94-.54,1.71-.1,1.71,1a3.76,3.76,0,0,1-1.71,2.95c-.94.55-1.7.11-1.7-1A3.75,3.75,0,0,1,187.8,271.94Z" style="fill:#fafafa"></path><path d="M191.16,278.16c0-1.79-1.25-2.58-2.8-1.69l-1,.56a6.17,6.17,0,0,0-2.8,4.85v.48s.66,1.35,3.28-.2a7.33,7.33,0,0,0,3.28-3.59Z" style="fill:#fafafa"></path><path d="M198.92,268.14c0,1.26.89,1.77,2,1.13l30.59-17.66a4.37,4.37,0,0,0,2-3.43c0-1.26-.89-1.76-2-1.13l-30.59,17.66A4.39,4.39,0,0,0,198.92,268.14Z" style="fill:#BA68C8"></path><path d="M198.92,274c0,.58.41.81.92.52L214,266.39a2,2,0,0,0,.92-1.58c0-.58-.41-.81-.92-.52l-14.11,8.15A2,2,0,0,0,198.92,274Z" style="fill:#e0e0e0"></path><path d="M271.58,219.71c3.22-1.76,5.67-.07,5.47,3.79s-3,8.42-6.19,10.18-5.67.08-5.47-3.78S268.36,221.48,271.58,219.71Z" style="fill:#BA68C8"></path><path d="M269.26,225.22v5.14c0,.39.21.46.46.17l4.74-5.48c.25-.29.15-.52-.24-.52H270A.69.69,0,0,0,269.26,225.22Z" style="fill:#fff"></path><path d="M183.24,299.53l93-53.7c2.2-1.27,4-.24,4,2.3v8.07a8.81,8.81,0,0,1-4,6.9l-93,53.7c-2.2,1.28-4,.24-4-2.3v-8.06A8.82,8.82,0,0,1,183.24,299.53Z" style="fill:#455a64"></path><path d="M183.32,305v6.76c0,.5.36.71.8.46l5.85-3.38a1.79,1.79,0,0,0,.8-1.38v-6.76c0-.51-.36-.72-.8-.46l-5.85,3.38A1.76,1.76,0,0,0,183.32,305Z" style="fill:#BA68C8"></path><path d="M183.32,305v6.76c0,.5.36.71.8.46l5.85-3.38a1.79,1.79,0,0,0,.8-1.38v-6.76c0-.51-.36-.72-.8-.46l-5.85,3.38A1.76,1.76,0,0,0,183.32,305Z" style="opacity:0.35000000000000003"></path><path d="M195,299.52c0,1.11.79,1.56,1.75,1l27-15.57a3.85,3.85,0,0,0,1.75-3c0-1.11-.79-1.55-1.75-1l-27,15.57A3.88,3.88,0,0,0,195,299.52Z" style="fill:#e0e0e0"></path><path d="M195,304.7c0,.51.36.72.81.46L208.29,298a1.77,1.77,0,0,0,.81-1.39c0-.52-.36-.72-.81-.46l-12.44,7.18A1.77,1.77,0,0,0,195,304.7Z" style="fill:#37474f"></path><path d="M265.6,259.61c.53-.31.95-.06.95.55a2.1,2.1,0,0,1-.95,1.66c-.53.31-1,.06-1-.55A2.11,2.11,0,0,1,265.6,259.61Z" style="fill:#e0e0e0"></path><path d="M269.34,257.45c.53-.31,1-.06,1,.55a2.1,2.1,0,0,1-1,1.66c-.53.31-1,.06-1-.55A2.13,2.13,0,0,1,269.34,257.45Z" style="fill:#e0e0e0"></path><path d="M273.08,255.29c.53-.31.95-.06.95.55a2.1,2.1,0,0,1-.95,1.66c-.53.31-1,.06-1-.55A2.13,2.13,0,0,1,273.08,255.29Z" style="fill:#e0e0e0"></path><path d="M183.24,355.67l93-53.7c2.2-1.27,4-.24,4,2.31v8.06a8.82,8.82,0,0,1-4,6.91l-93,53.7c-2.2,1.27-4,.24-4-2.3v-8.07A8.85,8.85,0,0,1,183.24,355.67Z" style="fill:#455a64"></path><path d="M183.32,360.73v6.75c0,.51.36.72.8.46l5.85-3.37a1.79,1.79,0,0,0,.8-1.39v-6.75c0-.51-.36-.72-.8-.46l-5.85,3.37A1.79,1.79,0,0,0,183.32,360.73Z" style="fill:#BA68C8"></path><path d="M183.32,360.73v6.75c0,.51.36.72.8.46l5.85-3.37a1.79,1.79,0,0,0,.8-1.39v-6.75c0-.51-.36-.72-.8-.46l-5.85,3.37A1.79,1.79,0,0,0,183.32,360.73Z" style="opacity:0.2"></path><path d="M195,355.3c0,1.11.79,1.56,1.75,1l27-15.57a3.85,3.85,0,0,0,1.75-3c0-1.11-.79-1.56-1.75-1l-27,15.57A3.88,3.88,0,0,0,195,355.3Z" style="fill:#e0e0e0"></path><path d="M195,360.48c0,.51.36.72.81.46l12.44-7.18a1.77,1.77,0,0,0,.81-1.39c0-.52-.36-.72-.81-.47l-12.44,7.19A1.77,1.77,0,0,0,195,360.48Z" style="fill:#37474f"></path><path d="M265.6,315.39c.53-.31.95-.06.95.55a2.1,2.1,0,0,1-.95,1.66c-.53.31-1,.06-1-.55A2.11,2.11,0,0,1,265.6,315.39Z" style="fill:#e0e0e0"></path><path d="M269.34,313.23c.53-.31,1-.06,1,.55a2.1,2.1,0,0,1-1,1.66c-.53.31-1,.06-1-.55A2.11,2.11,0,0,1,269.34,313.23Z" style="fill:#e0e0e0"></path><path d="M273.08,311.07c.53-.31.95-.06.95.55a2.1,2.1,0,0,1-.95,1.66c-.53.31-1,.06-1-.55A2.13,2.13,0,0,1,273.08,311.07Z" style="fill:#e0e0e0"></path><path d="M183.24,383.75l93-53.7c2.2-1.27,4-.24,4,2.3v8.07a8.81,8.81,0,0,1-4,6.9l-93,53.7c-2.2,1.27-4,.24-4-2.3v-8.07A8.81,8.81,0,0,1,183.24,383.75Z" style="fill:#455a64"></path><path d="M183.32,389v6.76c0,.51.36.72.8.46l5.85-3.38a1.76,1.76,0,0,0,.8-1.38v-6.76c0-.51-.36-.71-.8-.46l-5.85,3.38A1.77,1.77,0,0,0,183.32,389Z" style="fill:#BA68C8"></path><path d="M183.32,389v6.76c0,.51.36.72.8.46l5.85-3.38a1.76,1.76,0,0,0,.8-1.38v-6.76c0-.51-.36-.71-.8-.46l-5.85,3.38A1.77,1.77,0,0,0,183.32,389Z" style="fill:#fff;opacity:0.5"></path><path d="M195,383.59c0,1.11.79,1.55,1.75,1l27-15.57a3.85,3.85,0,0,0,1.75-3c0-1.11-.79-1.56-1.75-1l-27,15.57A3.88,3.88,0,0,0,195,383.59Z" style="fill:#e0e0e0"></path><path d="M195,388.77c0,.51.36.72.81.46l12.44-7.18a1.79,1.79,0,0,0,.81-1.4c0-.51-.36-.72-.81-.46l-12.44,7.18A1.79,1.79,0,0,0,195,388.77Z" style="fill:#37474f"></path><path d="M265.6,343.67c.53-.3.95-.05.95.56a2.12,2.12,0,0,1-.95,1.66c-.53.3-1,.06-1-.56A2.13,2.13,0,0,1,265.6,343.67Z" style="fill:#e0e0e0"></path><path d="M269.34,341.52c.53-.31,1-.06,1,.55a2.12,2.12,0,0,1-1,1.66c-.53.3-1,.06-1-.55A2.1,2.1,0,0,1,269.34,341.52Z" style="fill:#e0e0e0"></path><path d="M273.08,339.36c.53-.31.95-.06.95.55a2.12,2.12,0,0,1-.95,1.66c-.53.3-1,.06-1-.55A2.1,2.1,0,0,1,273.08,339.36Z" style="fill:#e0e0e0"></path><path d="M284,278.43a2.78,2.78,0,0,0-1.18-2.58l-3.74-2.16a2.81,2.81,0,0,0-2.81.28l-93,53.7a8.82,8.82,0,0,0-4,6.91v8.06a2.83,2.83,0,0,0,1.16,2.58l3.75,2.16a2.8,2.8,0,0,0,2.82-.27l93-53.7a8.83,8.83,0,0,0,4-6.91Z" style="fill:#BA68C8"></path><g style="opacity:0.2"><path d="M284,278.43a2.78,2.78,0,0,0-1.18-2.58l-3.74-2.16a2.81,2.81,0,0,0-2.81.28l-93,53.7a8.82,8.82,0,0,0-4,6.91v8.06a2.83,2.83,0,0,0,1.16,2.58l3.75,2.16a2.8,2.8,0,0,0,2.82-.27l93-53.7a8.83,8.83,0,0,0,4-6.91Z"></path></g><path d="M183,336.74v8.06a2.84,2.84,0,0,0,1.1,2.54l-3.68-2.12a2.8,2.8,0,0,1-1.16-2.58v-8.07a8.06,8.06,0,0,1,1.21-4l3.74,2.15A8.1,8.1,0,0,0,183,336.74Z" style="fill:#BA68C8"></path><g style="opacity:0.35000000000000003"><path d="M183,336.74v8.06a2.84,2.84,0,0,0,1.1,2.54l-3.68-2.12a2.8,2.8,0,0,1-1.16-2.58v-8.07a8.06,8.06,0,0,1,1.21-4l3.74,2.15A8.1,8.1,0,0,0,183,336.74Z"></path></g><path d="M187,329.83l93-53.7c2.2-1.27,4-.24,4,2.3v8.07a8.83,8.83,0,0,1-4,6.91l-93,53.7c-2.2,1.27-4,.24-4-2.31v-8.06A8.82,8.82,0,0,1,187,329.83Z" style="fill:#455a64"></path><path d="M188.62,334.14v6.76c0,.51.36.72.8.46l5.85-3.38a1.76,1.76,0,0,0,.8-1.38v-6.76c0-.5-.36-.71-.8-.46l-5.85,3.38A1.79,1.79,0,0,0,188.62,334.14Z" style="fill:#BA68C8"></path><path d="M190.9,334.29v3.56c0,.26.14.31.32.11l3.28-3.78c.17-.2.1-.37-.17-.37h-3A.49.49,0,0,0,190.9,334.29Z" style="fill:#fff"></path><path d="M200.34,328.72c0,1.11.78,1.56,1.75,1l27-15.57a3.88,3.88,0,0,0,1.75-3c0-1.11-.79-1.56-1.75-1l-27,15.57A3.85,3.85,0,0,0,200.34,328.72Z" style="fill:#BA68C8"></path><path d="M200.34,333.9c0,.51.36.72.81.46l12.44-7.18a1.78,1.78,0,0,0,.81-1.4c0-.51-.36-.71-.81-.46l-12.44,7.19A1.76,1.76,0,0,0,200.34,333.9Z" style="fill:#37474f"></path><path d="M270.89,288.81c.53-.31,1-.06,1,.55a2.13,2.13,0,0,1-1,1.66c-.53.31-.95.06-.95-.55A2.1,2.1,0,0,1,270.89,288.81Z" style="fill:#e0e0e0"></path><path d="M274.63,286.65c.53-.31,1-.06,1,.55a2.13,2.13,0,0,1-1,1.66c-.52.31-.95.06-.95-.55A2.13,2.13,0,0,1,274.63,286.65Z" style="fill:#e0e0e0"></path><path d="M278.37,284.49c.53-.31,1-.06,1,.55a2.11,2.11,0,0,1-1,1.66c-.52.31-.95.06-.95-.55A2.13,2.13,0,0,1,278.37,284.49Z" style="fill:#e0e0e0"></path></g></g><g id="freepik--Character--inject-40"><g id="freepik--character--inject-40"><path id="freepik--shadow--inject-40" d="M284.68,307.76c-.44,7.27-.73,15.62-1.27,25.1-.21,3.81-1.27,8.32,1.72,10.69,4.08,3.24,11-.7,15,2.6,1.7,1.4,2.31,3.68,3.07,5.74,3.51,9.47,11.9,16.45,21,20.76s19.16,6.34,28.95,8.85a45.81,45.81,0,0,1,11.86,4.33c4.92,2.87,8.7,7.34,13.27,10.73,6.2,4.61,13.61,7.1,20.21,11,1.23.73,2.18,1.82,3.41,2.49,1.63.89,3.43,1.48,5.06,2.39a38.63,38.63,0,0,1,9.05,7,25.76,25.76,0,0,0,3.37,3.24,9.82,9.82,0,0,0,5.27,1.88c3.24.18,6.78-1.66,7.62-4.8a7.39,7.39,0,0,0-2.16-6.8c-1.65-1.7-3.75-2.29-5.64-3.58a34.47,34.47,0,0,0-5.44-3.07,54.81,54.81,0,0,1-13.16-8.12c-4.2-3.59-7.63-8-11.35-12a114.11,114.11,0,0,0-21.78-18.59c4.09-.8,8.24,1.06,11.7,3.4s6.59,5.21,10.4,6.89c4.69,2.06,8.86,2.48,12.91,5.86,1.29,1.08,3.38,4.16,4.62,5.28,3.1,2.82,6,3.77,12.38,3.72,2.39,0,6.92-1.7,6.81-2.71,0-.33-5.55-2.21-5.74-2.47-9.73-13.35-23.59-23.07-37.75-31.6s-28.94-16.16-41.82-26.5C334,319.58,327.43,291.6,315,282c0,0-16.2-.75-21.54,2.64S285.61,292.2,284.68,307.76Z" style="fill:#263238;opacity:0.2"></path><g id="freepik--character--inject-40"><path d="M425.77,380.72a51.13,51.13,0,0,1-12.27-14.34c-2-3.75-9-35.28-9-35.28S390,343.19,390,343.27c2.1,3.2,9.21,16.21,9.89,21.66a10.18,10.18,0,0,1,0,3.3c-.85,3.19-.1,5.42,1.78,7.09s4.91,2.77,6.55,4.85c1.77,2.26,2.94,5.6,5.49,7.16a13.48,13.48,0,0,0,7.58,1.94c2.44,0,6.18-.68,8-2.49C431.83,384.39,428,382.55,425.77,380.72Z" style="fill:#b16668"></path><path d="M399.07,374.55a4.74,4.74,0,0,0,.23,1.59c.38.84,3.64,2.57,4.88,3.17a7.42,7.42,0,0,1,3.78,4,12.85,12.85,0,0,0,6.57,5.87,20.39,20.39,0,0,0,12,1.17c5-.94,5.4-3.9,5.4-3.9s.25-2.79-1-3.22S399.07,374.55,399.07,374.55Z" style="fill:#37474f"></path><path d="M399.7,363.89c-.13.06-.8.11-.74.82a21.54,21.54,0,0,1,.28,3.86c-.13,1.46-.82,4.2-.17,6,2.68,2.68,6.85,3.33,8.89,6.12s3.92,6.28,10.51,7.54,11.57-.85,12.78-2.73.08-3.64-4.15-5.89c-4.49-2.39-10.43-9.56-10.43-9.56a29.47,29.47,0,0,1-2.24-3.19,24.63,24.63,0,0,1-1.46-3.56,2.83,2.83,0,0,0-1-1.43,2.94,2.94,0,0,0-1.74-.21,12.19,12.19,0,0,0-2.82.44,4.26,4.26,0,0,0-2.3,1.59c-.39.57-.59,1.25-1,1.78a2.47,2.47,0,0,1-2.49.79,2.08,2.08,0,0,1-1.73-1.7Z" style="fill:#455a64"></path><path d="M414.2,386.67A8.34,8.34,0,0,1,419,379.5c5-2.57,8-.95,9.5.13,1.81,1.29,4.41,4,2.85,6-1.68,2.15-4.39,3.17-9.45,3.26S414.2,386.67,414.2,386.67Z" style="fill:#f0f0f0"></path><path d="M407.31,371.33a.57.57,0,0,0,.45-.24c.56-.79,4.15-3.75,7.65-2.8.17-.4-.12-.81-.84-1.24-3.67-.31-7.08,2.47-7.75,3.43a.52.52,0,0,0,.15.75A.59.59,0,0,0,407.31,371.33Z" style="fill:#fafafa"></path><path d="M417.42,370.9a1.73,1.73,0,0,0-1-1.2,10.44,10.44,0,0,0-7.29,3.45.53.53,0,0,0,.15.76.59.59,0,0,0,.79-.15C410.62,373,414,370.2,417.42,370.9Z" style="fill:#fafafa"></path><path d="M422.93,376.52a3.26,3.26,0,0,0-1.57-1.46,10.3,10.3,0,0,0-7.6,3.44.53.53,0,0,0,.15.76.52.52,0,0,0,.34.09.56.56,0,0,0,.45-.23C415.29,378.28,419.26,375,422.93,376.52Z" style="fill:#fafafa"></path><path d="M411.94,376.68a.6.6,0,0,0,.45-.24c.55-.78,4.07-3.67,7.53-2.82a2,2,0,0,0-1.18-1.25,10.44,10.44,0,0,0-7.3,3.46.53.53,0,0,0,.16.75A.59.59,0,0,0,411.94,376.68Z" style="fill:#fafafa"></path><path d="M405.15,332.16c-3-12.77-4.93-20.46-9.37-22.9-5.28-2.9-8.79-4-32.95,7.43-6.07,2.87-18,8.71-18,8.71l-31.78,25.94s14.23,7.24,35.59,3.8c9.38-1.51,16-8,23.16-13.33,10.91-8.16,13.86-10.86,13.86-10.86.24,6.74,4.9,14.72,10.82,25.06,0,0,8.4.12,12.76-5.1C409.24,350.91,407.61,342.66,405.15,332.16Z" style="fill:#37474f"></path><path d="M360.81,346.64l-9.29-3.76a14.29,14.29,0,0,0-4.61-10.33c1.77,5,1.94,8.26,1.81,10a22.34,22.34,0,0,0-14.49,2.13c5.66-1.63,9.37-1.86,14.23-.6l12.09,6.32c7.57-4.57,16.35-11.72,25.07-19.39C384.87,331.63,373.25,341.68,360.81,346.64Z" style="fill:#263238"></path><path d="M438,387.2a3.91,3.91,0,0,0-1.28-.06c-3.86.38-6.08,3.79-7.93,6.86-1.2,2-2.06,3-3.72,5.43-.47.68-2.46,2.93-2.46,2.93s-4.69-3.72-7.36-6.19c-3.25-3-13.33-12.76-19.32-18.79-9.19-9.25-12-12-19.66-16.33-7.57-4.64-32.63-16.64-40.4-21.41-7.18,3.57-15.32,3.9-19.09,10.32-.33,4.21,5.53,10,9.25,12,10.79,5.75,32.95,11.85,47.39,16.27,4.23,8.41,5.12,9.27,13.27,15.16,7.4,5.34,16.74,11.69,26.09,17.6a20.44,20.44,0,0,1,5,5c.43.64.8,1.35,1.18,2,1.3,2.35,3.27,3.73,6.09,3.44a7.84,7.84,0,0,0,5-2.65c2.68-3,3-7.41,4.89-11,1.74-3.3,4.89-5.38,5.63-9.19a18.84,18.84,0,0,0,.1-5.71,15.43,15.43,0,0,0-.59-2.92,4.21,4.21,0,0,0-1.43-2.49A2.48,2.48,0,0,0,438,387.2Z" style="fill:#b16668"></path><path d="M427.2,395c-.75,1.41-3.92,5.63-5.1,5.35s-2.4-1.22-3.48-.07c-1.59,1.68-2.64,3.46-2,5.26s1.44,3.36.56,3.31-2.19-1.53-3.42.2-1.64,2.33-1.07,2.79a10.73,10.73,0,0,1,3.39,2.94c1.05,1.71,2.13,4,4.2,4.91,0,0-1.19-2.48,2.48-8.36s5.88-6.45,6.76-11.31S427.2,395,427.2,395Z" style="fill:#455a64"></path><path d="M439.44,387.08a8.8,8.8,0,0,0-8.07,1.57A13.23,13.23,0,0,0,427.2,395a6.25,6.25,0,0,0,1.82,5,27.15,27.15,0,0,1,2.89-7.73C433.82,389.31,439.44,387.08,439.44,387.08Z" style="fill:#f0f0f0"></path><path d="M442.11,388c-1.54-1.18-3.85-1.38-6.56.2a13,13,0,0,0-5.76,7.6c-1,3.37-1.28,6.69-3.63,9.45s-5.72,6.79-6.39,9.86a10.94,10.94,0,0,0-.19,4,2,2,0,0,0,.77,1.29l1.68,1.29Z" style="fill:#37474f"></path><path d="M422,421.73c-1.76-.73-1.56-5.52,1.59-10.22s5-6.18,6.25-10.07,1.21-7.33,4.5-10.42,5.81-4.07,7.74-3c.69.38,1.51,2.38,1.4,4.34a16.44,16.44,0,0,1-3.16,9.29c-2.83,4.08-4.7,5-6,8.8s-2.46,7.43-5,9.56C427,422,424.41,422.73,422,421.73Z" style="fill:#263238"></path><path d="M421.94,400.74a2.18,2.18,0,0,0-.22,1.82s.67.37,1.16-.65a3.65,3.65,0,0,1,.87-2.49A2.77,2.77,0,0,0,421.94,400.74Z" style="fill:#fafafa"></path><path d="M424.07,398.65a2.22,2.22,0,0,0,0,1.83s.7.3,1.09-.77a3.64,3.64,0,0,1,.61-2.56A2.75,2.75,0,0,0,424.07,398.65Z" style="fill:#fafafa"></path><path d="M306.18,339.64c2.75,15,6.41,20.09,18.07,26,12.34,6.29,48.6,14.39,48.6,14.39s3.4,6.29,7.48,9.2c6.71,4.8,16.26,11.25,16.26,11.25A15,15,0,0,1,407,388.21s-13.07-13.72-19.89-21.3c-1.91-2.12-11.22-8.38-19.5-12.87-7.26-3.94-15.64-7.88-21.94-11.61L333.74,334Z" style="fill:#37474f"></path><path d="M328.28,276.84l4.2-.41c4.41-.38,6.63.34,8.8,3.24,3.82,5.12,9.58,24.51,12.07,33.87.68,2.55-13.24,6.39-13.24,6.39l-4.27-15Z" style="fill:#b16668"></path><path d="M310.37,279.4l-5.68.87s2.95,4.15,1.64,13.6a17.53,17.53,0,0,1-4.14,9.24c-1.4,8.4,4.4,25.52,4.4,25.52s7.66,4.9,22.52,1.89c13.05-2.64,11.26-5.15,11.26-5.15l-3.82-9.57,1.23-7.72a104.09,104.09,0,0,0-.95-17.26,60.74,60.74,0,0,0-4.35-14.39l-9,.87Z" style="fill:#b16668"></path><path d="M306.59,328.63s3.22,2.05,9.53,2.68c1.23-.93,1.36-1.83-1.32-2.34-7.29-1.37-7.88-7.6-8.64-11.91a106.35,106.35,0,0,1-.94-11.77c2.08-5,1.21-7.52,1.21-7.52a64.41,64.41,0,0,1-2.91,7.34l-.95,7.5h0A114.45,114.45,0,0,0,306.59,328.63Z" style="fill:#9a4a4d"></path><path d="M344.79,325.24l-4.34-8.05-.36-6.95c3.47-4.15,3.83-8,1.85-13.79a18.36,18.36,0,0,0-2.1-3.87c-1-1.45-3.94-5.33-6.93-9.45-1.6-2.2-2.94-4.65-4.63-6.29l-3.3.32s6.75,7.78,6.56,11.2-14.42,6.1-16.69,2.39-3.76-7.91-5.94-11.13l-4.22.65c3.24,3.73,6.24,12,4.79,18.36a15,15,0,0,1-6.3,9.17l-1.1.86s.39,14.66,1.88,23.57c1.65,9.85,3.41,15,4.91,18.14a10.21,10.21,0,0,0,2.86-8.23c5,1.67,17.47,1.45,27.14-6.76C344.72,330.42,344.79,325.24,344.79,325.24Z" style="fill:#BA68C8"></path><path d="M344.79,325.24l-4.34-8.05-.36-6.95c3.47-4.15,3.83-8,1.85-13.79a18.36,18.36,0,0,0-2.1-3.87c-1-1.45-3.94-5.33-6.93-9.45-1.6-2.2-2.94-4.65-4.63-6.29l-3.3.32s6.75,7.78,6.56,11.2-14.42,6.1-16.69,2.39-3.76-7.91-5.94-11.13l-4.22.65c3.24,3.73,6.24,12,4.79,18.36a15,15,0,0,1-6.3,9.17l-1.1.86s.39,14.66,1.88,23.57c1.65,9.85,3.41,15,4.91,18.14a10.21,10.21,0,0,0,2.86-8.23c5,1.67,17.47,1.45,27.14-6.76C344.72,330.42,344.79,325.24,344.79,325.24Z" style="fill:#fff;opacity:0.6000000000000001"></path><path d="M343.37,322.61c-6.74,1.22-31.23,5.44-33.61,2.89-2.76-2.95-3.65-11.72-4.51-19.36h0a11.55,11.55,0,0,1-2.07,1.66l-1.1.86s.39,14.66,1.88,23.57c.68,4,1.37,7.26,2.06,9.91L331.18,335s2.22,1.26,7.65.4l0,0c5.85-5,5.92-10.14,5.92-10.14Z" style="opacity:0.1"></path><path d="M302,240.47a9.11,9.11,0,0,0-4.81,6c-1.51,6.44.94,12.31,4.92,16.79,2.45,2.75,5.72,5.1,8.09,7.56l-.11-3.7a14.71,14.71,0,0,0,7.24,1.65l3.91-.06a16.76,16.76,0,0,0,6.09-1.23,9.63,9.63,0,0,0,4.26-3.2,15.62,15.62,0,0,0,2.57-4.79,15.08,15.08,0,0,0,.62-2.72c0-.25.34-2.48.12-2.55a4.41,4.41,0,0,0,3.74-7.95,3.42,3.42,0,0,0-1.15-6.64c1.17-.43,1.23-2.22.38-3.12a5.08,5.08,0,0,0-3.44-1.19,4.42,4.42,0,0,0-.82-6.34c.25.17.23,1.07.21,1.33a3.06,3.06,0,0,1-.46,1.44,3.14,3.14,0,0,1-2.54,1.22,1.82,1.82,0,0,0,1-2.14,2.19,2.19,0,0,0-1.91-1.5,2.77,2.77,0,0,0-2.29,1c.36-1,.64-2.2,0-3.05a2.24,2.24,0,0,0-2-.77,4.77,4.77,0,0,0-2,.62c-.64.38-.91.61-1.59,1.09a3.71,3.71,0,0,0-.34-2.44,3.05,3.05,0,0,0-2-1.67,5.5,5.5,0,0,1-.41,4.08,8.06,8.06,0,0,1-3.25,3.29c-1.21.72-6.93,1-8.53,1.49a7.38,7.38,0,0,0-4,2.35A5.59,5.59,0,0,0,302,240.47Z" style="fill:#BA68C8"></path><g style="opacity:0.35000000000000003"><path d="M302,240.47a9.11,9.11,0,0,0-4.81,6c-1.51,6.44.94,12.31,4.92,16.79,2.45,2.75,5.72,5.1,8.09,7.56l-.11-3.7a14.71,14.71,0,0,0,7.24,1.65l3.91-.06a16.76,16.76,0,0,0,6.09-1.23,9.63,9.63,0,0,0,4.26-3.2,15.62,15.62,0,0,0,2.57-4.79,15.08,15.08,0,0,0,.62-2.72c0-.25.34-2.48.12-2.55a4.41,4.41,0,0,0,3.74-7.95,3.42,3.42,0,0,0-1.15-6.64c1.17-.43,1.23-2.22.38-3.12a5.08,5.08,0,0,0-3.44-1.19,4.42,4.42,0,0,0-.82-6.34c.25.17.23,1.07.21,1.33a3.06,3.06,0,0,1-.46,1.44,3.14,3.14,0,0,1-2.54,1.22,1.82,1.82,0,0,0,1-2.14,2.19,2.19,0,0,0-1.91-1.5,2.77,2.77,0,0,0-2.29,1c.36-1,.64-2.2,0-3.05a2.24,2.24,0,0,0-2-.77,4.77,4.77,0,0,0-2,.62c-.64.38-.91.61-1.59,1.09a3.71,3.71,0,0,0-.34-2.44,3.05,3.05,0,0,0-2-1.67,5.5,5.5,0,0,1-.41,4.08,8.06,8.06,0,0,1-3.25,3.29c-1.21.72-6.93,1-8.53,1.49a7.38,7.38,0,0,0-4,2.35A5.59,5.59,0,0,0,302,240.47Z"></path></g><path d="M330.64,240.47c2.25,1.24,5.14,6.75,5.2,18.44,0,9.92-3.11,12.45-4.7,13.2s-4.71.41-7.75,0l.13,5.2s5.86,7.18,5.67,9.92-7.77,5-11.76,2.42-7.06-10.24-7.06-10.24L310,264.27a3.7,3.7,0,0,1-4.82.12c-2.65-2-3.49-5.76-1.6-7.78a4.34,4.34,0,0,1,6.94,1.18,37.73,37.73,0,0,0,10.86-4.56C327.72,249.53,329.59,244.87,330.64,240.47Z" style="fill:#b16668"></path><path d="M324.12,256.6a1.25,1.25,0,1,1-2.49.09,1.26,1.26,0,0,1,1.19-1.34A1.27,1.27,0,0,1,324.12,256.6Z" style="fill:#263238"></path><path d="M323.79,264.14l4.1,1.36A2.13,2.13,0,0,1,325.2,267,2.26,2.26,0,0,1,323.79,264.14Z" style="fill:#9a4a4d"></path><path d="M334.38,252.89l-2.5-1.78a1.47,1.47,0,0,1,2.1-.41A1.62,1.62,0,0,1,334.38,252.89Z" style="fill:#263238"></path><path d="M333.77,255.81a1.25,1.25,0,1,1-1.3-1.25A1.27,1.27,0,0,1,333.77,255.81Z" style="fill:#263238"></path><polygon points="328.17 254.41 328.01 262.53 331.97 261.35 328.17 254.41" style="fill:#9a4a4d"></polygon><path d="M323.39,272.1c-3.2-.33-9.81-2-10.9-4.6a6.78,6.78,0,0,0,2.39,3.25c2,1.62,8.56,3.33,8.56,3.33Z" style="fill:#9a4a4d"></path><path d="M355.24,303.39h0l-1-.8h0a1.12,1.12,0,0,0-1-.06L342.57,306a4,4,0,0,0-2.3,2.38l-6.61,22.76a1,1,0,0,0,.2,1.14h0l1.07.83h0a1.1,1.1,0,0,0,1,.07l10.62-3.48a4,4,0,0,0,2.31-2.38c1.29-4.48,5.31-18.29,6.61-22.77C355.66,304,355.55,303.59,355.24,303.39Z" style="fill:#BA68C8"></path><path d="M355.24,303.39h0l-1-.8h0a1.12,1.12,0,0,0-1-.06L342.57,306a4,4,0,0,0-2.3,2.38l-6.61,22.76a1,1,0,0,0,.2,1.14h0l1.07.83h0a1.1,1.1,0,0,0,1,.07l10.62-3.48a4,4,0,0,0,2.31-2.38c1.29-4.48,5.31-18.29,6.61-22.77C355.66,304,355.55,303.59,355.24,303.39Z" style="opacity:0.15"></path><path d="M342.47,307.5a4,4,0,0,0-1.16,1.71L334.69,332a1.06,1.06,0,0,0,.17,1.11l-1-.77h0a1,1,0,0,1-.21-1.14l6.62-22.76a3.83,3.83,0,0,1,1.07-1.62Z" style="fill:#BA68C8"></path><path d="M342.47,307.5a4,4,0,0,0-1.16,1.71L334.69,332a1.06,1.06,0,0,0,.17,1.11l-1-.77h0a1,1,0,0,1-.21-1.14l6.62-22.76a3.83,3.83,0,0,1,1.07-1.62Z" style="opacity:0.45"></path><path d="M334.7,332l6.61-22.76a4,4,0,0,1,2.31-2.39l10.62-3.48c1-.32,1.55.23,1.26,1.22-1.3,4.48-5.32,18.29-6.61,22.77a4,4,0,0,1-2.31,2.38L336,333.19C335,333.51,334.41,333,334.7,332Z" style="fill:#BA68C8"></path><path d="M334.7,332l6.61-22.76a4,4,0,0,1,2.31-2.39l10.62-3.48c1-.32,1.55.23,1.26,1.22-1.3,4.48-5.32,18.29-6.61,22.77a4,4,0,0,1-2.31,2.38L336,333.19C335,333.51,334.41,333,334.7,332Z" style="opacity:0.30000000000000004"></path><path d="M353.36,311.93c1.86-.54,3,1.45,2.87,5s-2.2,10-7.6,8.36c-2.11-.64-3.61-4.13-1.41-5.69a35.59,35.59,0,0,0,5.12-4.12Z" style="fill:#9a4a4d"></path><path d="M290.49,333.25c-1-6.88-1.4-19.84-1.42-30.81,0-12.84,1.31-14.29,3.72-17.5s7.25-4,11.9-4.67c3.91,5.49,2.33,11.74,2,15.57-.58,6.5-3.16,9.27-3.16,9.27l.78,18.45c10.94-1,23.57-2.34,25.59-3.42a12.1,12.1,0,0,0,2.86-3.11,7.89,7.89,0,0,1,2.72-2.48c1.38-.74,2.52-1.17,3.51-1.71l-1.37,4.75c.11.27.73.34,1,.43a17.15,17.15,0,0,0,6.56.8c4.62-.35,8.94-3.72,8.05.38-.36,1.64-1,4.7-3.47,6.78s-11.43,3-14,4.19c0,0-27,7.83-36.48,8.83C293.31,339.64,291.4,339.47,290.49,333.25Z" style="fill:#b16668"></path><path d="M316,231.43c-4.56,2.42-10.68,10.29-7.45,27.68l-4.36,1s-2.44-9.15-.52-16.71,5.47-10.19,7.11-11A11.22,11.22,0,0,1,316,231.43Z" style="fill:#263238"></path><path d="M313.69,259.57c-.29-3.7-3.16-6.69-6.41-6.68a4.63,4.63,0,0,0-1.45.22c-.39.12-2.68,1-2.92,1.13a6.11,6.11,0,0,0-3.5,6.37c.29,3.7,3.16,6.69,6.4,6.68a4.76,4.76,0,0,0,1.74-.32c.29-.1,2.5-1,2.78-1.1A6.15,6.15,0,0,0,313.69,259.57Z" style="fill:#37474f"></path><path d="M311.16,260.58c-.29-3.7-3.16-6.7-6.41-6.69s-5.63,3-5.34,6.72,3.16,6.69,6.4,6.68S311.45,264.28,311.16,260.58Z" style="fill:#455a64"></path><path d="M308.49,260.58a3.8,3.8,0,0,0-3.5-3.65,3.17,3.17,0,0,0-2.92,3.67,3.8,3.8,0,0,0,3.5,3.65A3.16,3.16,0,0,0,308.49,260.58Z" style="fill:#BA68C8"></path></g></g></g><g id="freepik--musical-notes--inject-40"><path id="freepik--musical-note--inject-40" d="M402.32,171.05l3.78,8.64a2.58,2.58,0,0,0-.81.19,2.47,2.47,0,1,0,3.25,1.27l-3.38-7.75,6.9-5.46h0l3.37,7.67a2.35,2.35,0,0,0-.81.2,2.47,2.47,0,1,0,3.25,1.27h0l-5.62-12.82Z" style="fill:#BA68C8"></path><path id="freepik--musical-note--inject-40" d="M431.72,279.76l3,11.88a3.1,3.1,0,0,0-1.09.07,3.21,3.21,0,1,0,3.91,2.31l-2.7-10.64,10-5.54h0l2.7,10.55a3.1,3.1,0,0,0-1.09.07,3.21,3.21,0,1,0,3.9,2.32h0l-4.49-17.61Z" style="fill:#BA68C8"></path><path id="freepik--musical-note--inject-40" d="M388.7,214.4l-7.58,14a4.16,4.16,0,1,0,.6,4.77l6.8-12.57,14.45,3.5h0l-6.71,12.48a4.16,4.16,0,1,0,.6,4.77h0l11.2-20.83Z" style="fill:#BA68C8"></path><path id="freepik--musical-note--inject-40" d="M375.54,276.27a4.45,4.45,0,0,1,1.6-.95,9.87,9.87,0,0,1,2.47-.45,16.84,16.84,0,0,0,3.33-.4,4.17,4.17,0,0,0,2.64-1.92,4.32,4.32,0,0,1-1.92.31c-1.57-.1-3.15-1.23-4.66-1.65-2.26-.63-4.1,0-6.23,1.3.59,2,1.14,3.95,1.71,5.93l1.35,4.64.55,2.12a4.29,4.29,0,0,0-1.84.1,3.46,3.46,0,1,0,4.29,2.35Z" style="fill:#BA68C8"></path><path id="freepik--musical-note--inject-40" d="M344.25,189.47a5.33,5.33,0,0,1,2.26.14,11.43,11.43,0,0,1,2.79,1.24,21.12,21.12,0,0,0,3.63,1.87,5,5,0,0,0,4-.12,5.24,5.24,0,0,1-2.15-1c-1.5-1.18-2.32-3.39-3.55-4.86-1.84-2.17-4.15-2.78-7.16-3-.75,2.38-1.56,4.75-2.34,7.13-.61,1.86-1.21,3.73-1.82,5.59-.06.18-.9,2.52-.9,2.52a5,5,0,0,0-1.92-1.17,4.21,4.21,0,1,0,2.7,5.3Z" style="fill:#BA68C8"></path><path id="freepik--musical-note--inject-40" d="M447.48,214.26a4.69,4.69,0,0,1,1.48-1.38,10.36,10.36,0,0,1,2.5-1,18.62,18.62,0,0,0,3.43-1.21,4.54,4.54,0,0,0,2.35-2.65,4.7,4.7,0,0,1-2,.78c-1.69.26-3.62-.56-5.32-.66-2.53-.13-4.33,1-6.28,2.85,1.09,1.93,2.13,3.9,3.19,5.85l2.51,4.6,1.09,2.12a4.53,4.53,0,0,0-1.93.53,3.75,3.75,0,1,0,5.08,1.48Z" style="fill:#BA68C8"></path></g><g id="freepik--speech-bubble--inject-40"><g id="freepik--sound-bubble--inject-40"><path d="M399.36,83.41v31.9a4.32,4.32,0,0,1-1.95,3.38l-68.59,39.63a1.33,1.33,0,0,1-.65.19,1.09,1.09,0,0,1-.25,0l-.17-.05-.17-.09a1.72,1.72,0,0,1-.51-.66,2.22,2.22,0,0,1-.21-1V125.26a4.32,4.32,0,0,1,2-3.38l68.59-39.6a1.39,1.39,0,0,1,1.31-.16.7.7,0,0,1,.17.09v0a.49.49,0,0,1,.13.12l.05.07a.34.34,0,0,1,.07.11.71.71,0,0,1,.11.25.69.69,0,0,1,.05.17s0,0,0,0a.8.8,0,0,1,0,.18C399.35,83.24,399.36,83.33,399.36,83.41Z" style="fill:#BA68C8"></path><path d="M327.07,157.67a2.58,2.58,0,0,1-.21-1V131.64h0v-6.38a4,4,0,0,1,.58-1.94l-6.94-4a4,4,0,0,0-.59,2v6.34h0v25.05a2.4,2.4,0,0,0,.22,1,1.69,1.69,0,0,0,.6.67l6.6,3.81.24.14A1.85,1.85,0,0,1,327.07,157.67Z" style="fill:#BA68C8"></path><path d="M327.07,157.67a2.58,2.58,0,0,1-.21-1V131.64h0v-6.38a4,4,0,0,1,.58-1.94l-6.94-4a4,4,0,0,0-.59,2v6.34h0v25.05a2.4,2.4,0,0,0,.22,1,1.69,1.69,0,0,0,.6.67l6.6,3.81.24.14A1.85,1.85,0,0,1,327.07,157.67Z" style="opacity:0.2"></path><path d="M397.41,82.28l-68.59,39.6a3.94,3.94,0,0,0-1.38,1.45l-6.93-4a3.91,3.91,0,0,1,1.36-1.43l68.59-39.59a1.38,1.38,0,0,1,1.42-.12c.35.22,6.42,3.69,6.83,3.91A1.44,1.44,0,0,0,397.41,82.28Z" style="fill:#BA68C8"></path><path d="M397.41,82.28l-68.59,39.6a3.94,3.94,0,0,0-1.38,1.45l-6.93-4a3.91,3.91,0,0,1,1.36-1.43l68.59-39.59a1.38,1.38,0,0,1,1.42-.12c.35.22,6.42,3.69,6.83,3.91A1.44,1.44,0,0,0,397.41,82.28Z" style="fill:#fff;opacity:0.4"></path><path d="M319.92,129.22l-10.06,9.94a1.54,1.54,0,0,0,.32,2.42l6.94,4a1.43,1.43,0,0,0,1,.18l8.73-1.44V133.24Z" style="fill:#BA68C8"></path><path d="M326.86,133.24l-6.94-4-10.06,9.94a1.71,1.71,0,0,0-.28.4l10.25,5.92,7-1.16Z" style="fill:#fff;opacity:0.4"></path><path d="M310.18,141.58l6.94,4a1.43,1.43,0,0,0,1,.18l1.7-.28-10.25-5.92A1.55,1.55,0,0,0,310.18,141.58Z" style="opacity:0.2"></path><path d="M326.86,133.24l-10.05,9.94a1.52,1.52,0,0,0,1.32,2.58l8.73-1.44Z" style="fill:#BA68C8"></path><g id="freepik--Audio--inject-40"><path d="M332.64,139.63a.47.47,0,0,1-.47-.47v-1.64a.47.47,0,0,1,.47-.47.48.48,0,0,1,.48.47v1.64A.48.48,0,0,1,332.64,139.63Z" style="fill:#fff"></path><path d="M335,142.9a.47.47,0,0,1-.47-.47V131.52a.47.47,0,0,1,.94,0v10.91A.47.47,0,0,1,335,142.9Z" style="fill:#fff"></path><path d="M337.37,139.07a.47.47,0,0,1-.47-.47v-6a.47.47,0,1,1,.94,0v6A.47.47,0,0,1,337.37,139.07Z" style="fill:#fff"></path><path d="M342.09,134.75a.47.47,0,0,1-.47-.47v-2.79a.47.47,0,0,1,.94,0v2.79A.47.47,0,0,1,342.09,134.75Z" style="fill:#fff"></path><path d="M344.45,135.51A.47.47,0,0,1,344,135v-7a.48.48,0,0,1,.95,0v7A.47.47,0,0,1,344.45,135.51Z" style="fill:#fff"></path><path d="M346.82,139.22a.47.47,0,0,1-.47-.47V121.57a.47.47,0,1,1,.94,0v17.18A.47.47,0,0,1,346.82,139.22Z" style="fill:#fff"></path><path d="M349.18,136.09a.47.47,0,0,1-.47-.47V122a.47.47,0,1,1,.94,0v13.65A.47.47,0,0,1,349.18,136.09Z" style="fill:#fff"></path><path d="M351.54,137.73a.47.47,0,0,1-.47-.47V117.61a.47.47,0,1,1,.94,0v19.65A.47.47,0,0,1,351.54,137.73Z" style="fill:#fff"></path><path d="M353.9,131.25a.47.47,0,0,1-.47-.47v-9.43a.47.47,0,0,1,.94,0v9.43A.47.47,0,0,1,353.9,131.25Z" style="fill:#fff"></path><path d="M356.27,126.3a.47.47,0,0,1-.47-.47v-2.25a.47.47,0,0,1,.94,0v2.25A.47.47,0,0,1,356.27,126.3Z" style="fill:#fff"></path><path d="M361,128.9a.47.47,0,0,1-.47-.47v-12.9a.47.47,0,1,1,.94,0v12.9A.47.47,0,0,1,361,128.9Z" style="fill:#fff"></path><path d="M365.71,129.51a.47.47,0,0,1-.47-.47V109.46a.47.47,0,1,1,.94,0V129A.47.47,0,0,1,365.71,129.51Z" style="fill:#fff"></path><path d="M370.44,118.39a.47.47,0,0,1-.47-.47v-2.79a.47.47,0,0,1,.94,0v2.79A.47.47,0,0,1,370.44,118.39Z" style="fill:#fff"></path><path d="M394,104.21a.47.47,0,0,1-.47-.47V102.1a.47.47,0,0,1,.94,0v1.64A.47.47,0,0,1,394,104.21Z" style="fill:#fff"></path><path d="M391.64,110.2a.47.47,0,0,1-.47-.47V98.83a.47.47,0,0,1,.94,0v10.9A.47.47,0,0,1,391.64,110.2Z" style="fill:#fff"></path><path d="M389.28,109.1a.47.47,0,0,1-.47-.47v-6a.47.47,0,0,1,.94,0v6A.47.47,0,0,1,389.28,109.1Z" style="fill:#fff"></path><path d="M384.55,110.24a.47.47,0,0,1-.47-.47V107a.47.47,0,1,1,.94,0v2.79A.47.47,0,0,1,384.55,110.24Z" style="fill:#fff"></path><path d="M382.19,113.72a.47.47,0,0,1-.47-.47v-7a.47.47,0,0,1,.94,0v7A.47.47,0,0,1,382.19,113.72Z" style="fill:#fff"></path><path d="M379.83,120.16a.47.47,0,0,1-.47-.47V102.51a.47.47,0,0,1,.94,0v17.18A.47.47,0,0,1,379.83,120.16Z" style="fill:#fff"></path><path d="M375.11,124.12a.48.48,0,0,1-.48-.47V104a.48.48,0,0,1,.48-.47.47.47,0,0,1,.47.47v19.65A.47.47,0,0,1,375.11,124.12Z" style="fill:#fff"></path><path d="M372.74,119.32a.47.47,0,0,1-.47-.47v-7.32a.47.47,0,1,1,.94,0v7.32A.47.47,0,0,1,372.74,119.32Z" style="fill:#fff"></path><path d="M339.73,143.46a.47.47,0,0,1-.47-.47V125.51a.47.47,0,1,1,.94,0V143A.47.47,0,0,1,339.73,143.46Z" style="fill:#fff"></path><path d="M358.63,126.21a.47.47,0,0,1-.47-.47v-4.8a.47.47,0,0,1,.94,0v4.8A.47.47,0,0,1,358.63,126.21Z" style="fill:#fff"></path><path d="M363.35,134.43a.47.47,0,0,1-.47-.47V107.27a.47.47,0,1,1,.94,0V134A.47.47,0,0,1,363.35,134.43Z" style="fill:#fff"></path><path d="M368.08,122.92a.47.47,0,0,1-.47-.47v-9.13a.47.47,0,0,1,.94,0v9.13A.47.47,0,0,1,368.08,122.92Z" style="fill:#fff"></path><path d="M386.92,116.22a.47.47,0,0,1-.47-.47V98.27a.47.47,0,1,1,.94,0v17.48A.47.47,0,0,1,386.92,116.22Z" style="fill:#fff"></path><path d="M377.47,119.76a.47.47,0,0,1-.47-.47V105.64a.47.47,0,1,1,.94,0v13.65A.47.47,0,0,1,377.47,119.76Z" style="fill:#fff"></path></g></g></g></svg>