<svg viewBox="0 0 512 512" xmlns="http://www.w3.org/2000/svg"><path d="m271 184.601562v243.398438c-8.699219-3.601562-18.898438-6-30-6-33.601562 0-60 19.800781-60 45s26.398438 45 60 45 60-19.800781 60-45v-199.601562l91-25.800782 90-25.796875v152.199219c-8.699219-3.601562-18.898438-6-30-6-33.601562 0-60 19.800781-60 45s26.398438 45 60 45 60-19.800781 60-45v-290.800781zm0 0" fill="#ff7cb9"/><path d="m241 136v30c0 24.898438-20.097656 45-45 45s-45-20.101562-45-45v-30h30v30c0 8.398438 6.597656 15 15 15s15-6.601562 15-15v-30c0-52.800781-39.300781-97.601562-90-104.800781v269.800781c0 33-27 60-60 60s-61-27-61-60 28-60 61-60c11.101562 0 21 3.300781 30 8.398438v-249.398438h15c74.398438 0 135 61.597656 135 136zm0 0" fill="#cb75f6"/><path d="m241 136v30c0 24.898438-20.097656 45-45 45s-45-20.101562-45-45v-30h30v30c0 8.398438 6.597656 15 15 15s15-6.601562 15-15v-30c0-52.800781-39.300781-97.601562-90-104.800781v269.800781c0 33-27 60-60 60v-120c11.101562 0 21 3.300781 30 8.398438v-249.398438h15c74.398438 0 135 61.597656 135 136zm0 0" fill="#b760ea"/><path d="m512 116.199219v290.800781c0 25.199219-26.398438 45-60 45s-60-19.800781-60-45 26.398438-45 60-45c11.101562 0 21.300781 2.398438 30 6v-152.199219l-90 25.796875v-91.199218zm0 0" fill="#ff5ca8"/></svg>